<?xml version="1.0" encoding="UTF-8"?>
<svg id="_레이어_1" data-name="레이어 1" xmlns="http://www.w3.org/2000/svg" viewBox="0 0 566.93 566.93">
  <defs>
    <style>
      .cls-1 {
        fill: #fff;
      }

      .cls-2 {
        fill: #4e4442;
      }

      .cls-3 {
        fill: #c02a34;
      }

      .cls-4 {
        fill: #f08c78;
      }

      .cls-5 {
        fill: #291414;
      }

      .cls-6 {
        fill: #100605;
      }

      .cls-7 {
        fill: #bfb299;
      }

      .cls-8 {
        fill: #473634;
      }

      .cls-9 {
        fill: #332423;
      }

      .cls-10 {
        fill: #9c8069;
      }

      .cls-11 {
        fill: #fbd3aa;
      }

      .cls-12 {
        fill: #feefcc;
      }

      .cls-13 {
        fill: #3c2c35;
      }

      .cls-14 {
        fill: #222f52;
      }

      .cls-15 {
        fill: #625552;
      }

      .cls-16 {
        fill: #25386c;
      }

      .cls-17 {
        fill: #423230;
      }

      .cls-18 {
        fill: #a09381;
      }

      .cls-19 {
        fill: #f08b54;
      }
    </style>
  </defs>
  <g id="MyFace">
    <path class="cls-16" d="m167.86,472.39c1.62-.39,3.24-.79,4.87-1.18.7.17,1.32-.02,1.86-.48,2.56-.57,5.12-1.15,7.68-1.72,1.02.14,1.97-.03,2.85-.59,0,0-.02,0-.02,0,1,.14,1.94-.03,2.8-.57h-.02c1,.15,1.94-.02,2.81-.56h-.02c1.01.15,1.95-.01,2.82-.55h-.02c1.01.16,1.96,0,2.83-.54,0,0-.02,0-.02,0,.57.02,1.15.04,1.72.06-.1.54-.13,1.11-.31,1.63-.64,1.84-1.35,3.66-1.99,5.5-2.82,8.16-5.44,16.38-7.53,24.76-1.59,6.38-3.32,12.74-4.62,19.18-1.26,6.25-2.72,12.48-3.59,18.81-.43,3.11-.92,6.22-1.61,9.28-.39,1.73-.47,3.48-.76,5.22-.73,4.38-1.31,8.77-1.95,13.17-.01.09,0,.19,0,.28.01.74.47,1.05,1.08.69,4.49-2.68,9.19-4.86,14.27-6.18,3.77-.98,7.57-1.64,11.48-1.91,2.78-.19,5.49-.42,8.27.02,1.81.29,3.67.22,5.52.52,3.59.57,7.08,1.48,10.53,2.54,7.26,2.22,13.82,5.91,20.2,9.95,5.83,3.68,10.97,8.26,16.07,12.84,2.82,2.54,5.66,5.13,7.91,8.24.37.51.9.62,1.49.44,0,0-.02.04-.02.04-.05.58-.08,1.13.79.89l.11.15c-.08.12-.16.25-.23.37.12-.07.24-.15.36-.22.7.34,1.06,1.03,1.53,1.59,2.86,3.43,5.7,6.88,8.56,10.31.35.42.61.96,1.39,1.03.57-.61,1.22-1.27,1.83-1.95,2.22-2.51,4.42-5.04,6.66-7.53.74-.82,1.33-1.79,2.32-2.38.12.09.24.18.35.26l-.25-.38.13-.16c.88.27.84-.3.79-.87v-.04c.58.18,1.15.08,1.47-.45.81-1.39,2.01-2.44,3.14-3.54,3.34-3.22,6.49-6.64,10.06-9.64,3.34-2.81,6.69-5.58,10.27-8.06,5.66-3.91,11.59-7.35,18.12-9.7,6.31-2.28,12.67-4.17,19.45-4.21.55,0,1.13-.03,1.65-.2,1.29-.41,2.54-.41,3.83-.01.61.19,1.29.22,1.93.2,2.05-.07,4.08.12,6.07.59,2.61.62,5.3,1.02,7.79,1.96,3.46,1.3,7.04,2.41,10.1,4.64.37.27.82.43,1.24.63.17.08.35.16.53.17.3.03.53-.11.59-.43.26-1.51-.3-2.93-.5-4.4-.27-2.02-.43-4.05-.72-6.06-.27-1.92-.81-3.81-.93-5.74-.19-2.97-.95-5.84-1.34-8.78-.5-3.75-1.32-7.46-2.06-11.17-.99-4.99-1.9-10-3.1-14.94-1.16-4.76-2.23-9.55-3.51-14.3-1.86-6.89-3.88-13.73-6.05-20.53-1.16-3.62-2.62-7.14-3.88-10.73-.3-.86-.79-1.7-.7-2.67.51.03,1.02.07,1.53.1.9.54,1.86.69,2.89.52,0,0-.02,0-.02,0,1.05.59,2.19.72,3.36.59,0,0-.03,0-.03,0,.87.56,1.82.7,2.83.54,0,0-.02,0-.02,0,.87.54,1.82.7,2.82.55,0,0-.02,0-.02,0,.89.54,1.85.71,2.87.56.13.02.27.04.4.06.72.52,1.52.68,2.39.51.13.02.26.04.4.06.71.54,1.51.69,2.38.53,2.39.55,4.79,1.09,7.18,1.64.69.5,1.45.71,2.3.55,0,0-.02,0-.02,0,.68.5,1.42.7,2.26.55,0,0-.02,0-.02,0,.67.5,1.42.71,2.25.56,0,0-.02,0-.02,0,.68.52,1.45.72,2.3.58,1.45.38,2.89.76,4.34,1.15.53.44,1.12.68,1.82.52.7.19,1.4.39,2.11.58.53.44,1.11.69,1.81.53.7.2,1.39.4,2.09.6.52.45,1.1.7,1.8.54,5.22,1.53,10.39,3.24,15.51,5.07.34.35.72.6,1.24.47,0,0,0,0,0,0,.46.47,1,.71,1.66.59,0,0-.02,0-.02,0,.48.47,1.03.73,1.72.61,1.45.56,2.91,1.11,4.36,1.67.33.36.7.6,1.22.5,0,0,0,0,0,0,.45.48.98.74,1.65.63,0,0-.02,0-.02,0,.31.36.67.6,1.18.5,0,0,0,0,0,0,.45.49.99.75,1.67.65,13.17,5.45,25.89,11.8,37.85,19.59,8.6,5.6,16.68,11.86,23.92,19.17,3.94,3.98,7.56,8.22,10.76,12.81,3.15,4.52,5.84,9.29,7.91,14.4-.1.48.06.86.48,1.13.05.17.1.34.15.51-.12.48.07.84.44,1.13.23.74.47,1.48.7,2.22-.14.47.02.85.4,1.15.27,1.13.55,2.26.82,3.39-.04.06-.11.15-.1.17.07.11.16.19.25.28,1.74,8.02,1.74,16.04.07,24.07-.29.15-.37.37-.2.66-1.57,7.16-4.48,13.77-8.3,19.99-5.2,8.48-11.8,15.77-19.23,22.33-10.37,9.17-21.93,16.6-34.13,23.05-7.81,4.13-15.84,7.78-24.03,11.1-.51-.09-.95.02-1.22.51,0,0,0,0,0,0-.68-.1-1.25.11-1.7.63-1.45.56-2.89,1.11-4.34,1.67-.51-.09-.95,0-1.24.49,0,0,0,0,0,0-.68-.09-1.27.05-1.72.6-4.99,1.68-9.98,3.35-14.97,5.03-.68-.11-1.29-.03-1.75.55,0,0,.02,0,.02,0-.68-.11-1.3-.04-1.77.54-.69.2-1.39.4-2.08.6-.7-.12-1.33-.02-1.82.54-3.49.94-6.98,1.89-10.47,2.83-.87-.14-1.67,0-2.36.58-5.73,1.31-11.45,2.61-17.18,3.92-.87-.14-1.7-.09-2.4.51-.13.02-.26.04-.39.05-1.03-.15-2.01-.06-2.89.56,0,0,.03,0,.03,0-1.01-.14-1.97-.08-2.83.55,0,0,.03,0,.03,0-1-.12-1.98-.14-2.84.54,0,0,.02,0,.02,0-1.17-.08-2.34-.16-3.37.58,0,0,.03,0,.03,0-1.17-.09-2.34-.16-3.38.56,0,0,.03,0,.03,0-1.17-.09-2.35-.18-3.39.55,0,0,.03,0,.03,0-1.35-.08-2.7-.15-3.93.58,0,0,.03,0,.03,0-.65,0-1.3-.07-1.94,0-4.71.58-9.41,1.17-14.11,1.79-.45.06-.87.29-1.3.44,0,0,.03,0,.03,0-1.49-.22-2.97.04-4.45.18-3.24.3-6.47.65-9.71.91-3.61.29-7.24.51-10.85.76-.65.04-1.3.06-1.89.41-1.03.04-2.06.08-3.1.11-1.01-.27-2.04-.12-3.06-.08-2.7.11-5.39.35-8.09.39-6.61.1-13.23.18-19.84.15-6.42-.03-12.85,0-19.27-.42-2.87-.19-5.76-.41-8.65-.16,0,0,.03,0,.03,0-.66-.41-1.42-.37-2.15-.42-3.22-.23-6.44-.48-9.66-.67-1.28-.08-2.57-.03-3.86-.04,0,0,.03,0,.03,0-2.01-.75-4.09-.67-6.17-.57,0,0,.03,0,.03,0-1.63-.73-3.35-.65-5.07-.55,0,0,.03,0,.03,0-1.46-.71-3.01-.66-4.58-.54-.13,0-.27-.01-.4-.03-.63-.46-1.38-.46-2.1-.55-3.72-.5-7.45-1.02-11.17-1.53-1-.14-1.99-.34-3.01-.16,0,0,.03,0,.03,0-1.04-.72-2.21-.65-3.39-.55,0,0,.03,0,.03,0-1.04-.7-2.21-.67-3.38-.56,0,0,.03,0,.03,0-1.03-.72-2.2-.67-3.37-.58,0,0,.03,0,.03,0-.86-.65-1.83-.67-2.84-.54,0,0,.03,0,.03,0-.88-.62-1.87-.69-2.89-.55-.13,0-.26-.03-.39-.05-.71-.6-1.54-.65-2.41-.51-.13,0-.26-.03-.38-.05-.71-.6-1.54-.66-2.41-.51-.13-.01-.26-.03-.39-.05-.71-.6-1.53-.67-2.39-.52-5.55-1.3-11.09-2.6-16.64-3.9-.69-.57-1.48-.73-2.35-.59-1.44-.38-2.88-.77-4.32-1.15-.5-.55-1.13-.66-1.83-.52-.7-.19-1.39-.39-2.09-.58-.5-.54-1.12-.67-1.82-.54-.69-.2-1.39-.4-2.08-.6-.48-.57-1.11-.66-1.8-.55-1.26-.39-2.51-.77-3.77-1.16-.46-.58-1.08-.64-1.75-.55,0,0,0,0,0,0-.43-.6-1.04-.63-1.69-.55,0,0,0,0,0,0-.43-.6-1.04-.64-1.69-.56,0,0,.01,0,.01,0-.42-.6-1.03-.64-1.68-.56,0,0,0,0,0,0-.42-.6-1.03-.64-1.67-.57,0,0,0,0,0,0-.29-.49-.74-.57-1.25-.47-1.07-.38-2.13-.76-3.2-1.14-.46-.53-1.04-.72-1.73-.6,0,0,.02,0,.02,0-.29-.47-.72-.59-1.24-.49-.51-.19-1.02-.38-1.53-.57-.46-.53-1.03-.73-1.71-.62,0,0,.01,0,.01,0-.28-.48-.71-.59-1.23-.5-12.74-5-25.09-10.79-36.84-17.82-10.33-6.18-20.03-13.2-28.67-21.62-5.28-5.15-10.03-10.74-14-16.97-2.61-4.09-4.85-8.36-6.54-12.9.11-.47-.04-.84-.45-1.11-.05-.18-.1-.36-.15-.55.12-.47-.04-.84-.42-1.12-.05-.19-.09-.37-.14-.56.12-.47,0-.84-.4-1.12-1.19-4.22-2.04-8.5-2.3-12.88-.6-10.26,1.51-19.97,5.92-29.21,3.06-6.42,7.02-12.26,11.62-17.68,7.15-8.43,15.5-15.53,24.53-21.86,12.47-8.74,25.9-15.71,39.87-21.69,2.82-1.21,5.68-2.31,8.52-3.46.68.11,1.23-.14,1.69-.63,0,0,0,0,0,0,.52.11.89-.13,1.23-.49.52-.19,1.03-.39,1.55-.58.68.12,1.24-.13,1.71-.61,0,0,0,0,0,0,.53.14.9-.12,1.24-.48,1.63-.57,3.26-1.14,4.89-1.71.69.14,1.25-.12,1.74-.58,0,0-.02,0-.02,0,.67.14,1.22-.12,1.69-.56,0,0-.02,0-.02,0,.67.14,1.22-.11,1.7-.56h-.02c.69.15,1.24-.11,1.74-.56,1.25-.39,2.51-.78,3.77-1.17.68.13,1.26-.08,1.77-.54,0,0-.01,0-.01,0,.69.16,1.25-.1,1.75-.53,4.06-1.12,8.11-2.25,12.17-3.37.7.17,1.3-.05,1.84-.5Z"/>
    <path class="cls-12" d="m425.38,311.99c-.71,1.13-.72,2.48-.95,3.72-.75,4.11-1.81,8.13-2.99,12.14-2.65,8.96-6.48,17.41-10.89,25.61-3.04,5.65-6.63,10.96-10.51,16.08-2.69,3.55-5.6,6.92-8.5,10.3-2.98,3.48-6.18,6.72-9.52,9.79-2.86,2.62-5.85,5.13-8.89,7.58-5.08,4.08-10.47,7.7-15.91,11.25-1.55,1.02-3.14,2-4.78,2.86-1.25.65-2.38,1.43-3.44,2.34-1.1-.05-1.92.65-2.81,1.11-6.38,3.28-12.94,6.12-19.72,8.48-9.51,3.31-19.22,5.69-29.25,6.76-4.35.47-8.7.75-13.07.86-1.76.05-3.52-.32-5.28-.32-4.58,0-9.09-.65-13.58-1.37-7.07-1.13-14.01-2.88-20.8-5.18-7.59-2.56-14.96-5.64-22.09-9.31-.89-.46-1.7-1.18-2.82-1.05-.44-.6-.94-1.09-1.63-1.46-4.82-2.6-9.48-5.49-13.93-8.67-4.07-2.91-8.07-5.9-11.84-9.21-3.07-2.69-6.23-5.3-9.05-8.22-2.95-3.06-5.85-6.2-8.62-9.44-4.23-4.95-8.1-10.14-11.59-15.62-1.84-2.89-3.53-5.88-5.25-8.86-1.77-3.07-3.16-6.3-4.65-9.49-2.39-5.14-4.26-10.49-5.83-15.92-.95-3.28-1.65-6.64-2.43-9.98-.38-1.62-.67-3.25-1-4.88-.23-2.03-.4-4.06-.7-6.07-.55-3.68-.81-7.39-.83-11.08-.04-7.9-.83-15.76-.82-23.66,0-.46-.05-.93-.14-1.38-.28-1.38-.29-2.77-.15-4.16.35-.28.43-.66.39-1.08.01-.75.03-1.5.04-2.25,1.1-6.68,2.2-13.37,3.32-20.05.57-3.38,1.18-6.76,1.77-10.14,4.12,5.33,8.92,9.47,12.15,10.41,0-.4.06-.77-.01-1.12-.63-2.92-.86-5.88-1.2-8.83-.47-4.02-.35-7.98.17-11.96.12-.91.37-1.83.69-2.69.44-1.18,1.48-1.33,2.42-.4.4.39.72.86,1.1,1.26.71.74,1.42,1.48,2.16,2.18,1.62,1.51,3.56,1.92,5.7,1.59.65-.1.95-.6.66-1.21-.74-1.6-1.67-3.13-1.7-4.98,1.46.9,2.5,2.45,4.31,2.82.44-.98.8-1.94,1.29-2.82.49-.89,1.06-1.74,1.67-2.55,2.33-3.13,5.09-5.86,8.01-8.43.47-.41,1.09-.67,1.63-.99-.73.86-1.35,1.77-1.67,3.15,2.44-.72,4.41-1.91,6.63-2.32.69.21,1.22-.12,1.74-.51.16-.03.32-.06.48-.07.69.23,1.25-.06,1.77-.46.34-.03.68-.07,1.02-.1,1.03.24,1.97-.03,2.88-.47.36-.04.72-.09,1.08-.13,2.8,0,5.61.01,8.41.02.39.04.78.08,1.16.12.87.4,1.75.71,2.73.47.18.03.37.05.55.08.89.49,1.82.77,2.84.53.17,0,.34.02.5.05.7.46,1.45.74,2.3.49,1.1.2,2.19.41,3.29.61.7.46,1.43.75,2.29.52.17,0,.33.02.5.06.53.39,1.08.7,1.77.46,1.11.22,2.22.44,3.34.65.49.35.98.68,1.62.46.18.04.36.07.54.1.52.39,1.06.71,1.76.48.16.01.32.04.49.07.52.38,1.06.71,1.75.48.16.02.32.04.48.07.52.39,1.06.72,1.75.49.19.02.37.04.56.06.48.34.96.69,1.61.48.27.05.55.08.82.15,1.7.41,3.42,1.59,5.08,1.04,1.6-.53,2.92-1.9,4.36-2.91.07-.05.11-.14.17-.21-.03-.09-.04-.19-.1-.26-.18-.2-.36-.42-.58-.57-8.59-5.56-17.53-10.4-27.35-13.45-2.3-.72-4.59-1.47-7.02-1.6-1.42-.65-2.91-.67-4.43-.49-.56,0-1.12,0-1.68,0-.73,0-1.45,0-2.18,0-.67-.18-1.23.06-1.75.46l-.54.13c-.48-.13-.84.06-1.15.41-1.39.06-2.55.92-3.89,1.16-.2-.22-.41-.43-.61-.65,1.35-.99,2.69-2,4.04-2.97,2.35-1.69,4.54-3.56,6.59-5.6,4.99-4.97,8.97-10.69,12.33-16.85,5.39-9.87,8.98-20.41,11.72-31.27,1.5-5.96,2.51-12.02,3.57-18.06,2.7-.09,5.38.22,8.07.43,4.01.31,7.9,1.1,11.76,2.17,1.12.31,2.07.82,2.85,1.66,1.08,1.16,2.17,2.31,3.2,3.5,9.66,11.16,13.51,24.18,12.36,38.79-.03.37-.16.72-.25,1.09-.41,2.38-1.38,4.67-1.22,7.21.61-.17.77-.57.83-.89.38-2.17,1.45-4.2,1.34-6.48.33-3.03.81-6.05.97-9.09.22-4.27-.38-8.5-1.3-12.66-1.33-6.04-3.86-11.57-7.49-16.58-.51-.71-1.09-1.39-1.48-2.22.9-.33,1.35.43,2,.36.53.64,1.14,1.23,1.59,1.92,5,7.68,7.84,16.09,8.55,25.22.35,4.54.13,9.07-.26,13.59-.67.99-.31,2.19-.63,3.25-.35,1.32-1.11,2.59-.62,4.33.89-1.3,1.18-2.52,1.33-3.78.09-1.29.9-2.45.67-3.79.96-3.71,1.37-7.51,1.61-11.32.44-7.03-.32-13.94-2.41-20.69,1.01.41,1.52,1.31,2.13,2.13,5.44,7.31,7.9,15.69,8.66,24.62.39,4.53.17,9.1.04,13.65-.03.98-.55,1.93-.27,2.96,1.05-.03,1.58-.73,2.19-1.28,2.3-2.06,4.17-4.48,5.84-7.07.8-1.24,1.57-2.5,2.36-3.76.81,2.22.75,4.57.8,6.86.11,5.15-.45,10.18-3.77,14.47-.17.22-.19.5.18.62,1.42.76,2.94.7,4.48.54.52.04,1.05.07,1.57.11.03.14.07.28.11.42-.13.14-.3.25-.37.41-1.02,2.38-2.63,4.24-4.79,5.65-.07.04.01.32.03.57.34.04.7.11,1.06.11,6.04-.02,12.08.26,18.12-.45,5.38-.63,10.64-1.67,15.76-3.4,3.73-1.27,7.18-3.07,10.19-5.65,2.52-2.16,4.35-4.83,5.55-7.92.27-.7.73-1.05,1.49-.96,2.05.24,4.01.73,5.72,1.99,1.68,1.23,2.69,2.8,2.66,4.94-.02,1.02-.07,2.05-.05,3.07.01.42.36.64.78.57.36-.06.71-.2,1.05-.34,2.32-1.01,4.43-2.36,6.37-3.98,2.74-2.28,4.58-5.09,5.29-8.61.2-.98.37-1.96.59-3.09.92.39,1.37,1.09,1.86,1.73.67.88,1.32,1.78,1.98,2.68.14,1.32-.07,2.59-.38,3.87-.72,3.01-1.93,5.82-3.45,8.5-.23.4-.84.79-.36,1.49,2.4-1.04,4.35-2.81,6.58-4.1.15,2.48-.53,4.76-1.65,6.92-.3.58-.67,1.11-.97,1.69-.33.64-.09,1.04.7,1.07,1.58.05,3.16.14,4.73.05,4.43-.26,7.97-2.17,10.56-5.84,1.76-2.49,2.58-5.32,3.15-8.25.08-.39-.16-.96.58-1.16.23.23.53.45.74.73,3.32,4.47,6.53,9.04,9.22,13.92,3.32,6.03,6.49,12.15,6.14,19.37-.02.5.55.78.98.48,1.22-.84,2.41-1.72,3.62-2.58-.04.55-.03,1.11-.14,1.65-1,4.69-2.09,9.35-3.56,13.92-1.04,3.24-2.14,6.47-3.21,9.7-.33.14-.32.36-.01.44.36.09.61-.16.7-.53,1.79-1.74,3.39-3.66,4.88-5.67,2.09-2.82,4-5.77,5.82-8.77.33-.04.65-.08.98-.12,1.89,9.54,3.78,19.07,5.66,28.61-.11.97-.11,1.9.7,2.62-.22,5.19-.44,10.38-.66,15.57-.12,2.87-.2,5.74-.41,8.61-.36,4.99-.28,10.01-.63,15.01-.24,3.42-.13,6.85-.5,10.28-.3,2.76-.94,5.5-.81,8.3Zm-102.22-91.17l.05-.03c.65.21,1.12-.14,1.59-.5.18-.02.37-.04.55-.07.69.21,1.23-.12,1.75-.5,1.65-.4,3.3-.79,4.95-1.19.69.23,1.24-.08,1.77-.46,1.09-.21,2.19-.42,3.28-.62.86.24,1.6-.03,2.31-.49.17-.03.34-.04.51-.05,1.19.23,2.3-.07,3.38-.55.17-.03.33-.04.5-.04,1.2.23,2.33,0,3.42-.49.37-.03.74-.06,1.11-.08,2.06.29,4.05-.29,6.07-.5,1.69,0,3.38.02,5.08.02,1.09.5,2.21.73,3.4.51,1.31.21,2.62.42,3.93.62.48.38.99.66,1.63.43.18.03.36.07.55.09.7.45,1.43.76,2.28.52.17,0,.33.03.5.06.53.39,1.07.7,1.77.47.16.01.32.04.49.07.53.37,1.08.68,1.77.46.46.07.92.12,1.37.22.36.08.7.28,1.06.32.37.04.84.31,1.21-.31-1.65-1.67-3.57-2.92-5.55-4.1-4.14-2.47-8.57-4.31-13.07-5.96-1.11-.41-2.28-.78-3.51-.72-3-.9-6-.78-8.99,0-.54.03-1.08.05-1.62.08-1.01-.19-2-.19-2.88.44-.35.03-.7.06-1.04.09-1.01-.21-1.97-.09-2.84.51-.36.03-.72.05-1.08.08-.66-.2-1.25-.12-1.72.42-.35.05-.7.1-1.05.14-.68-.21-1.26-.04-1.76.45-.28.03-.56.04-.83.1-13.13,2.91-25.96,6.87-38.66,11.24-.41.14-.84.3-1.14.87,2.73,1.57,5.48,3.1,8.18,4.71.98.59,1.83.58,2.87.14,3.84-1.63,7.74-3.1,11.72-4.35.45.14.75-.14,1.07-.39,1.31-.39,2.62-.77,3.93-1.16.68.19,1.21-.13,1.71-.52Zm49.75,15.61l.05.03c.5.39,1.03.71,1.71.52.75.2,1.5.4,2.25.6.59.44,1.24.69,1.98.64.15,0,.34-.11.41-.22.11-.17,0-.33-.21-.41-.41-.14-.68-.6-1.18-.52-2.76-1.51-5.54-2.98-8.26-4.55-1.95-1.13-4.02-1.86-6.24-2.19-.69-.45-1.42-.76-2.27-.51-.17-.02-.35-.04-.52-.05-.87-.55-1.81-.75-2.82-.52-.35-.03-.7-.06-1.04-.09-.88-.64-1.87-.64-2.88-.44-.54-.02-1.08-.05-1.63-.07-3.19-.9-6.4-.66-9.62-.27-.17.02-.33.16-.5.24-.53.03-1.07.06-1.6.09-1.02-.24-1.96-.07-2.84.5-.17.01-.35.03-.52.05-.67-.18-1.28-.12-1.77.44-2.56.42-5,1.31-7.45,2.13-5.6,1.86-9.84,5.41-12.81,10.48-.89,1.51-1.65,3.1-2.39,4.69-.18.4-.76.81-.29,1.41,1.77-1.12,2.76-3.02,4.43-4.19.74.05,1.46-.03,2.2-.18,4.06-.82,8.14-1.59,12.21-2.38.44-.09.67.22.9.5-.58,2.05-1.16,4.1-.93,6.28.65,6.26,4.58,10.67,10.86,12.14,2.04.79,3.06.79,5.11,0,.71-.2,1.45-.34,2.14-.59,5.96-2.23,9.4-8.07,8.59-14.39-.37-2.88-1.67-5.28-3.5-7.46.05-.61.29-1,.97-1.12,3.98-.73,7.95-1.49,11.92-2.24,1.32.38,2.64.75,3.95,1.13.47.35.93.71,1.57.52Zm-186-5.4c.3,0,.61,0,.91,0,.78.28,1.54.7,2.34.81,3.39.45,6.73,1.14,10.09,1.74,3.81.68,7.65,1.21,11.48,1.81.57.09.7.53.76,1.01-.41.38-.83.74-1.23,1.13-7.31,7.2-4.06,19.93,5.81,22.41.68.36,1.36.7,2.16.47.92.16,1.85.16,2.77.01.82.22,1.52-.04,2.2-.47,6.94-1.5,11.06-9.16,9.72-15.22-.38-1.74-.99-3.35-1.87-4.87.19-.63.64-.83,1.25-.77.54.05,1.08.1,1.62.15.53.21,1.06.43,1.59.64.21.17.4.38.64.49.13.06.39.01.49-.09.24-.23.09-.5-.09-.7-.12-.12-.31-.17-.47-.25-6.72-6.66-14.79-10.84-23.96-12.95-.49-.54-1.09-.64-1.76-.45-.17-.02-.35-.04-.52-.05-.87-.57-1.81-.75-2.83-.51-.36-.04-.73-.09-1.09-.13-.5-.56-1.12-.55-1.77-.35-2.13-.03-4.27-.08-6.4-.07-1.2,0-2.42,0-3.55.52-.55.02-1.1.04-1.66.06-.85-.23-1.6-.03-2.3.47-4.94.9-9.62,2.52-13.93,5.12-.25.1-.55.14-.73.31-.21.19-.81.1-.57.72,1.39.24,2.71-.08,4-.56.4-.01.8-.02,1.19-.04.72.22,1.4.06,2.08-.19,1.21.16,2.43.35,3.61-.17Zm49.68,2.06c-3.79-4.03-8.33-6.95-13.43-9.02-1.79-.73-3.59-1.46-5.55-1.63-.52-.46-1.11-.6-1.78-.41-2.02,0-4.04,0-6.05-.01-.17-.03-.36-.11-.52-.07-.24.05-.47.19-.7.29.16.17.29.41.49.5.74.32,1.53.46,2.34.27.36.04.73.08,1.09.12.54.35,1.09.65,1.77.44.54.11,1.09.19,1.62.34,5.01,1.4,9.67,3.6,14.12,6.25,1.9,1.13,3.78,2.31,5.66,3.47.76.77,1.67,1.3,3.06,2.01-.67-1.32-1.28-2.03-2.13-2.55Zm101.7-7.29c1.04.18,2.01.09,2.87-.62-.38-.51-.82-.46-1.28-.34-2.01-.16-4.02-.15-6.03,0-.67-.2-1.27-.06-1.79.41-7.48,1.49-13.71,5.21-18.99,10.62-.81.58-1.68,1.12-1.84,2.49.99-.64,1.89-1.02,2.52-1.82.79-.48,1.58-.94,2.36-1.43,2.88-1.84,5.82-3.58,8.91-5.05,3.34-1.58,6.74-3.02,10.4-3.68.68.21,1.23-.09,1.78-.44l1.09-.12Zm-45.88,127.59c5.93-1.08,11.76-2.51,17.48-4.43,5.28-1.77,10.38-3.96,15.16-6.84,2.55-1.53,4.95-3.27,7.19-5.22.83-.72,1.25-1.59,1.14-2.69-.11-1.12-.67-1.9-1.77-2.25-.58-.58-1.17-.59-1.77-.05-.88.18-1.43.85-2.07,1.37-2.81,2.32-5.86,4.26-9.1,5.92-3.15,1.61-6.41,2.94-9.75,4.1-10.78,3.74-21.95,5.55-33.26,6.7-1.33-.07-2.66-.24-3.91.41-.93.05-1.87.09-2.8.14-2.06-.06-4.14-.27-6.15.4-7.06.17-14.11.19-21.17,0-1.52-.51-3.05-.7-4.59-.05-1.21.34-1.8,1.24-1.91,2.4-.12,1.2.52,2.08,1.53,2.68.15.09.33.14.5.21.68.67,1.47.5,2.26.3,8.71.29,17.41.29,26.12-.02,1.16.22,2.32.41,3.41-.28,1.48-.08,2.97-.16,4.45-.24.97.19,1.94.32,2.81-.34,1.16-.13,2.32-.26,3.47-.39.54.31,1.02.16,1.47-.19.78-.05,1.57-.11,2.35-.16.78.16,1.55.22,2.2-.38.78-.13,1.57-.27,2.35-.4.37.28.66.11.93-.17.6-.05,1.19-.11,1.79-.16.61.16,1.18.13,1.65-.38Zm83.75-13.51c3.4.12,6.51-.05,9.63-.77,4.22-.98,8.09-2.77,11.81-4.87,3.75-2.13,6.95-5.04,9.63-8.38,2.9-3.62,5.28-7.56,6.81-12.05,1.61-4.71,2.36-9.5,2.47-14.43.01-.64-.08-1.31-.26-1.92-.22-.73-.27-1.46-.27-2.2.01-.94-.22-1.82-.41-2.74-.57-2.74-1.4-5.38-2.46-7.96-1.43-3.47-3.43-6.64-5.85-9.44-2.85-3.3-6.04-6.26-9.85-8.56-5.27-3.19-10.86-5.14-17.01-5.49-.64-.04-1.29-.13-1.92-.29-1.29-.33-2.56-.33-3.85,0-.62.16-1.28.28-1.92.28-2.54-.03-4.95.61-7.36,1.32-2.78.82-5.37,2.05-7.94,3.37-3,1.54-5.59,3.64-8.1,5.84-2.76,2.41-4.88,5.37-6.72,8.48-3.36,5.67-5.45,11.77-5.44,18.46,0,1.58,0,3.17,0,4.75,0,.84-.03,1.69.11,2.51.44,2.75,1.22,5.4,2.07,8.06,1.77,5.53,5.04,10.09,8.79,14.38,1.05,1.2,2.4,2.04,3.6,3.07,4.24,3.63,9.17,5.93,14.48,7.49,3.33.97,6.72,1.34,9.95,1.1Zm-187.48.03c2.61.15,5.72-.11,8.83-.84,4.11-.97,7.92-2.6,11.54-4.71,4.06-2.37,7.53-5.51,10.41-9.15,2.4-3.04,4.36-6.41,5.83-10.09,1.53-3.84,2.28-7.83,2.81-11.85.44-3.32-.05-6.67-.66-9.96-.24-1.27-.56-2.53-.91-3.77-1.4-4.98-3.62-9.56-6.9-13.56-2.12-2.58-4.49-4.97-7.12-7.05-3.23-2.55-6.83-4.46-10.69-5.88-2.71-.99-5.52-1.57-8.37-1.92-1.28-.16-2.58-.03-3.86-.44-.96-.31-2.03-.2-3.04.03-.63.14-1.28.39-1.9.35-2.85-.15-5.52.72-8.15,1.57-7.5,2.4-13.85,6.52-18.85,12.73-3.74,4.65-6.38,9.76-7.75,15.54-.38,1.62-.96,3.24-1.03,4.88-.22,5.1-.38,10.23,1.18,15.19,1.43,4.52,3.15,8.9,6.15,12.7,1.73,2.19,3.66,4.16,5.63,6.12,2.74,2.72,5.94,4.73,9.34,6.47,2.32,1.19,4.8,1.95,7.32,2.62,2.15.57,4.3,1.11,6.56,1.03,1.02-.04,2.05,0,3.63,0Zm100.46-51.76c.09-2.74-.41-5.76-1.08-8.77-2.34-10.62-6.59-20.52-11.56-30.14-.2-.38-.34-.94-.94-.86-.41.05-.52.48-.67.8-.28.59-.55,1.18-.79,1.79-4.01,10.02-8.01,20.04-12.01,30.06-1.48,3.71-2.92,7.45-4.48,11.13-.65,1.53-.47,2.79.33,4.22,1.35,2.4,3.09,4.43,5.19,6.15,3.01,2.47,6.53,3.58,10.4,3.19,2.87-.29,5.63-1.16,8.25-2.44,3.6-1.75,5.73-4.6,6.75-8.41.56-2.1.62-4.23.6-6.71Zm11.95,80.52c-.44-.28-.87-.09-1.31,0-3.72.79-7.47,1.4-11.21,2.06-2.95.52-5.93.36-8.87.87-1.35.24-2.78.18-4.16-.13-.54-.12-1.1-.17-1.66-.18-.24,0-.56.08-.7.24-.21.25.02.54.21.73,2.29,2.25,4.96,3.95,8.02,4.88,3.37,1.03,6.78.97,10.08-.42,3.59-1.51,6.52-3.9,9.04-6.82.3-.35.6-.72.54-1.23Zm-27.2-193.7c-.05-.06-.09-.13-.14-.19-.06.05-.15.1-.16.16-.03.21.06.31.22.23.05-.02.06-.13.08-.2Z"/>
    <path class="cls-5" d="m427.69,251.61c-1.89-9.54-3.78-19.07-5.66-28.61.15-.25.13-.52-.07-.69-.23-.19-.49-.04-.63.15-.14.18-.19.44-.28.66-1.82,3-3.73,5.95-5.82,8.77-1.49,2.01-3.09,3.92-4.88,5.67-.23.03-.46.06-.68.09,1.07-3.23,2.17-6.46,3.21-9.7,1.46-4.57,2.56-9.23,3.56-13.92.11-.54.1-1.1.14-1.65.7-1.95.84-4,1.06-6.04.03-.19.06-.39.09-.58.66-1,1.31-2.01,1.97-3.01,3.28-4.95,5.26-10.41,6.31-16.22.23-1.27.69-2.48.61-3.83-.27-4.91.33-9.82-.51-14.74-.52-3.02-1.05-6.01-1.94-8.93-.59-1.95-1.3-3.88-1.76-5.86-.95-4.09-2.56-7.94-4.26-11.76-.67-1.52-1.66-2.9-2.43-4.38-2.46-4.72-5.53-9.07-9.13-12.91-4.94-5.28-9.9-10.59-15.83-14.86-5.5-3.97-10.94-8.02-17.42-10.32-3.05-1.09-6.06-2.3-9.29-2.86-2.28-.4-4.5-1.09-6.84-1.03-.27,0-.57-.06-.81-.17-.88-.39-1.82-.39-2.75-.35-4.26.19-8.55-.51-12.78.54-1.98-.26-3.89.37-5.78.7-4.93.86-9.77,2.17-14.48,3.85-1.62.58-3.44.85-4.72,2.22-1.95-.01-3.87-.31-5.8-.52-2.75-.3-5.49-.94-8.29-.68-.36.03-.77.01-1.1-.12-1.26-.5-2.56-.38-3.86-.39-2.42-.01-4.83,0-7.25,0-1.02,0-2.03,0-3.03.33-.98.33-1.99.19-3.02-.02-1.81-.37-3.64-.84-5.47-.83-4.81.03-9.64-.43-14.45.44-1.81.33-3.65.57-5.45.97-4.53,1.02-8.97,2.33-13.18,4.33-.6.28-1.11.22-1.47-.32-1.66-2.51-3.93-4.46-6.1-6.48-3.44-3.21-7.7-4.76-12.34-5.11-3.19-.24-6.26.5-9.16,1.86-.92.43-1.81.98-2.88.92-.3-.53-.83-.85-1.35-.92-1.74-.23-3.41-.9-5.2-.79-3.05.17-6.1-.16-9.16.48-2.15.44-4.37.64-6.55,1.08-3.75.75-7.31,2.09-10.92,3.3-1.32.44-2.69.81-3.91,1.44-1.52.79-3.13,1.19-4.76,1.49-2.12.39-4.14,1.02-6.07,1.94-3.44,1.64-6.6,3.69-9.65,6.04-3.23,2.48-5.66,5.61-8.22,8.65-1.6,1.9-2.83,4.12-4.19,6.22-2.02,3.13-3.79,6.41-5.24,9.83-2.07,4.87-3.79,9.88-5.35,14.94-.44,1.42-.79,2.85-1.05,4.31-.48,2.73-.87,5.47-1.24,8.22-.26,1.95-.44,3.87-.4,5.81.08,4.08-.17,8.14.46,12.23.46,3.01.91,6.03,1.5,9.01.15.74.25,1.46.26,2.2-.19.19-.38.38-.57.57-1.15.58-2.16,1.44-3.46,1.7-.43-.08-.79,0-1.01.43-.21.05-.42.09-.64.14-.42-.1-.79-.06-1.03.36-.41.08-.82.16-1.24.24-1.1-.1-2.2-.17-3.21.44-.58,0-1.16,0-1.74,0-1.01-.61-2.11-.53-3.22-.42-.55-.05-1.1-.11-1.65-.16.36-.3.71-.6,1.07-.9,2.01-.35,3.56-1.53,5.04-2.81,2.28-1.95,4.12-4.29,5.72-6.81,2.03-3.21,1.99-6.71,1.25-10.25-.47-2.27-1.09-4.51-1.71-6.75-2.65-9.63-3.22-19.4-2.15-29.3.59-5.46,1.41-10.87,2.88-16.17.37-1.34.82-2.66,1.24-3.98.26-.16.43-.37.32-.7,3.92-10.29,10.73-18.16,19.96-24.05,5.85-3.73,12.19-6.32,18.86-8.1,1.26-.34,2.17-.9,3.02-1.81,4.46-4.75,9.18-9.25,13.85-13.8,4.06-3.95,8.85-6.39,14.35-7.55.66.16,1.21-.09,1.73-.45.36-.02.72-.03,1.09-.05,1.17.14,2.32.09,3.38-.5.54-.04,1.08-.08,1.63-.13,3.74,0,7.48,0,11.23,0,.73.04,1.46.08,2.19.12,1.28.48,2.6.65,3.97.47.36.03.71.06,1.07.1,1.06.58,2.2.67,3.37.51.37.01.73.02,1.1.04.71.37,1.45.63,2.28.46.35.04.71.09,1.06.13.77.42,1.53,1.1,2.31.02,9.16-9.75,20.4-15.96,33.18-19.57.27-.08.55-.09.83-.14.67.19,1.2-.13,1.73-.48.17-.02.35-.04.52-.05.67.19,1.25.02,1.74-.46.34-.05.68-.1,1.03-.15.67.2,1.24-.02,1.76-.42.36-.03.71-.05,1.07-.08,1.01.19,1.96.07,2.84-.48.36-.04.71-.08,1.07-.12,1.53.19,3-.24,4.49-.49.92-.03,1.84-.07,2.77-.1,2.63.18,5.26.14,7.89,0,.73.05,1.45.1,2.18.15,1.09.55,2.25.63,3.43.45.53.04,1.06.08,1.59.12.69.49,1.45.65,2.28.47,1.11.21,2.21.42,3.32.62.52.36,1.06.66,1.73.46.17.03.34.06.51.08.52.35,1.05.67,1.72.49,5.67,1.39,11.13,3.39,16.54,5.56,7.74,3.11,15.22,6.74,22.54,10.73.28.37.65.65,1.13.63,1.51-.09,3.05-.03,4.5-.61,1.48,0,2.96,0,4.43,0,1.3.4,2.61.63,3.98.45.35.03.71.07,1.06.1.72.38,1.45.67,2.29.47.17.02.34.05.51.09.53.38,1.08.66,1.77.45,4.4.91,8.51,2.59,12.53,4.53,8.44,4.07,16.15,9.22,22.69,15.98,7.01,7.24,11.87,15.69,14.15,25.55,1.83,7.93,1.91,15.86.03,23.79-.29.87-.25.92.84,1.17,5.62,2.65,10.4,6.37,14.34,11.17,2.6,3.18,4.6,6.71,5.96,10.59-.13.33.03.53.3.68,1.53,5.15,2.11,10.4,1.57,15.74-.52,5.02-1.7,9.89-3.49,14.62-1.71,4.53-3.69,8.94-5.73,13.32-.72,1.55-1.09,3.12-1.22,4.83-.45,5.94-1.08,11.87-1.48,17.82-.27,4.08-1.01,8.13-.8,12.25-.31.37-.37.82-.41,1.29-.46,5.77-.92,11.53-1.37,17.3-.33.02-.66.05-1,.07Z"/>
    <path class="cls-4" d="m219.6,413.67c1.12-.13,1.93.59,2.82,1.05,7.13,3.67,14.5,6.74,22.09,9.31,6.79,2.29,13.73,4.05,20.8,5.18,4.49.72,9,1.38,13.58,1.37,1.76,0,3.53.37,5.28.32,4.36-.12,8.72-.4,13.07-.86,10.03-1.08,19.74-3.45,29.25-6.76,6.77-2.36,13.34-5.2,19.72-8.48.89-.46,1.71-1.16,2.81-1.11,0,3.81,0,7.62,0,11.43,0,1.02.08,2.04.12,3.06-.08,1.11-.21,2.22-.21,3.33.01,5.02-.37,10.03-.78,15.02-.52,6.29-1.28,12.56-2.11,18.81-.48,3.67-.92,7.36-1.87,10.95-.84.25-1,1.04-1.31,1.7-2.78,5.95-6.42,11.31-10.87,16.14-6.54,7.09-14.26,12.49-23.16,16.17-5.79,2.4-11.84,3.98-18.06,4.46-6.4.49-12.81.42-19.17-.94-6.14-1.31-12.04-3.24-17.55-6.22-12.5-6.75-21.89-16.54-28.18-29.29-.34-1.12-.81-2.16-1.53-3.09-.98-5.48-1.93-10.96-2.49-16.51-.48-4.8-1.11-9.59-1.45-14.4-.34-4.81-.73-9.63-.67-14.47,0-.55-.13-1.1-.2-1.65.02-4.84.04-9.67.06-14.51Z"/>
    <path class="cls-9" d="m132.01,191.69c0-.74-.11-1.46-.26-2.2-.59-2.99-1.04-6-1.5-9.01-.63-4.09-.37-8.16-.46-12.23-.04-1.94.14-3.86.4-5.81.37-2.75.76-5.49,1.24-8.22.26-1.46.61-2.89,1.05-4.31,1.57-5.06,3.28-10.07,5.35-14.94,1.46-3.42,3.23-6.7,5.24-9.83,1.35-2.1,2.59-4.32,4.19-6.22,2.56-3.04,4.99-6.16,8.22-8.65,3.05-2.34,6.2-4.39,9.65-6.04,1.93-.92,3.95-1.55,6.07-1.94,1.63-.3,3.24-.7,4.76-1.49,1.22-.64,2.59-1,3.91-1.44,3.61-1.21,7.17-2.55,10.92-3.3,2.18-.44,4.4-.64,6.55-1.08,3.07-.63,6.11-.3,9.16-.48,1.8-.1,3.47.56,5.2.79.52.07,1.05.38,1.35.92-.53,1.14-1.78,1.26-2.66,1.91-4.5,3.31-8.79,6.86-12.1,11.43-4.01,5.54-6.56,11.61-6.5,18.58.01,1.21.05,2.42,0,3.63-.16,3.37.36,6.66,1.17,9.91,1.31,5.22,3,10.33,5.07,15.3.11.27.3.49.62.39.14-.05.28-.23.35-.38,1.35-2.76,2.5-5.63,4.06-8.26,3.45-5.82,6.95-11.61,11.32-16.85,2.08-2.5,4.48-4.7,6.44-7.3.76-1.01,2.04-1.6,2.95-2.52,3.09-3.13,6.64-5.64,10.32-8.01.78-.5,1.61-.92,2.45-1.33.6-.29.77-.14,1.22.98-.16,1.64-.31,3.28-.47,4.92-1.06,6.05-2.07,12.1-3.57,18.06-2.74,10.86-6.34,21.4-11.72,31.27-3.36,6.16-7.34,11.88-12.33,16.85-2.05,2.04-4.25,3.91-6.59,5.6-1.36.98-2.69,1.98-4.04,2.97-1.02.33-1.77,1.02-2.49,1.78-1.41,1.01-2.76,2.11-4.23,3.02-1.75,1.08-3.1,2.61-4.67,3.89-.72.59-1.67,1.21-1.96,2.27-.55.33-1.16.58-1.63.99-2.92,2.57-5.68,5.31-8.01,8.43-.61.81-1.18,1.66-1.67,2.55-.49.88-.84,1.84-1.29,2.82-1.8-.37-2.84-1.92-4.3-2.82-2.91-3.48-4.87-7.4-5.66-11.91-.74-4.26-.65-8.51-.13-12.77.22-1.82.56-3.63.85-5.44-.37-.05-.56-.14-.71-.08-4.36,1.58-7.73,4.37-10.11,8.35-.43.73-.7,1.51-.83,2.35-.21,1.47-.37,2.95-.68,4.4-.33,1.53-.27,3.14-.94,4.6-.46-.08-.95-.16-1.14-.66-.25-.69-.47-1.41-.66-2.12-.58-2.14-1.13-4.29-1.69-6.43-.07-.28-.2-.51-.51-.56-.37-.06-.47.24-.54.5-1.03,4.04-1.94,8.09-1.77,12.31.08,1.85.23,3.67.52,5.51.36,2.31,1,4.51,1.73,6.7.26.77.82.93,1.49,1.01.07.9-.49,1.84.14,2.72-.23.15-.45.3-.68.45-1.35-2.2-2.64-4.45-4.09-6.59-1.1-1.62-1.85-3.41-2.75-5.13-.4-.76-.92-1.11-1.76-1.03,0-1.9-.63-3.62-1.39-5.32-2.13-4.76-3.8-9.69-5.1-14.74.12-.37-.11-.56-.39-.71Z"/>
    <path class="cls-14" d="m219.53,428.17c.07.55.2,1.1.2,1.65-.06,4.84.33,9.65.67,14.47.34,4.81.96,9.6,1.45,14.4.56,5.54,1.52,11.03,2.49,16.51-.13,1.16.27,2.23.62,3.3.17.91.33,1.83.51,2.74,5.05,24.32,12.93,47.68,23.71,70.06,6.71,13.93,14.33,27.32,23.28,39.94-.59.18-1.13.07-1.49-.44-2.26-3.11-5.09-5.71-7.91-8.24-5.1-4.58-10.24-9.16-16.07-12.84-6.38-4.03-12.93-7.73-20.2-9.95-3.45-1.06-6.94-1.97-10.53-2.54-1.85-.3-3.71-.23-5.52-.52-2.78-.44-5.49-.21-8.27-.02-3.91.27-7.71.92-11.48,1.91-5.08,1.32-9.78,3.51-14.27,6.18-.61.36-1.07.05-1.08-.69,0-.09-.02-.19,0-.28.64-4.39,1.22-8.79,1.95-13.17.29-1.73.37-3.48.76-5.22.69-3.06,1.18-6.17,1.61-9.28.87-6.33,2.33-12.56,3.59-18.81,1.3-6.44,3.02-12.8,4.62-19.18,2.09-8.38,4.71-16.6,7.53-24.76.64-1.84,1.35-3.66,1.99-5.5.18-.52.21-1.09.31-1.63.16-.22.33-.44.49-.66.95-2.22,1.9-4.43,2.85-6.65,2.93-6.84,6.19-13.51,10.07-19.87,1.69-2.78,3.48-5.5,5.52-8.04.81-1.01,1.73-1.93,2.6-2.89Z"/>
    <path class="cls-14" d="m344.17,476.27c.95-3.59,1.39-7.28,1.87-10.95.82-6.26,1.59-12.53,2.11-18.81.41-4.99.79-10,.78-15.02,0-1.11.14-2.22.21-3.33,1.27.96,2.18,2.26,3.14,3.5,4.12,5.38,7.45,11.25,10.51,17.28,2.26,4.45,4.27,9.03,6.17,13.64.35.85.61,1.74,1.26,2.44-.09.97.39,1.81.7,2.67,1.27,3.59,2.73,7.11,3.88,10.73,2.17,6.8,4.19,13.64,6.05,20.53,1.28,4.74,2.34,9.53,3.51,14.3,1.21,4.94,2.11,9.95,3.1,14.94.74,3.71,1.56,7.42,2.06,11.17.39,2.93,1.15,5.8,1.34,8.78.12,1.92.66,3.82.93,5.74.29,2.01.45,4.05.72,6.06.2,1.46.76,2.88.5,4.4-.05.31-.29.45-.59.43-.18-.02-.36-.1-.53-.17-.42-.2-.87-.36-1.24-.63-3.05-2.22-6.64-3.34-10.1-4.64-2.49-.94-5.19-1.34-7.79-1.96-2-.48-4.02-.66-6.07-.59-.64.02-1.32-.02-1.93-.2-1.3-.4-2.54-.4-3.83.01-.52.17-1.1.19-1.65.2-6.78.04-13.14,1.93-19.45,4.21-6.52,2.36-12.45,5.79-18.12,9.7-3.58,2.47-6.94,5.25-10.27,8.06-3.57,3.01-6.72,6.42-10.06,9.64-1.13,1.09-2.33,2.14-3.14,3.54-.31.53-.88.63-1.48.45,2.11-3.17,4.29-6.3,6.31-9.52,16.43-26.31,28.43-54.52,36.3-84.5,1.91-7.28,3.65-14.61,4.79-22.06Z"/>
    <path class="cls-4" d="m428.69,251.53c.46-5.77.92-11.53,1.37-17.3.04-.46.1-.91.41-1.29,10.35.85,18.86,5.4,25.76,13.01,5.74,6.34,9.02,13.9,9.86,22.38,1,10.03-1.47,19.26-7.47,27.4-6.36,8.62-14.86,13.88-25.46,15.76-2.59.46-5.18.5-7.79.5-.13-2.8.51-5.54.81-8.3.37-3.43.26-6.86.5-10.28.35-5,.27-10.02.63-15.01.21-2.87.28-5.74.41-8.61.22-5.19.44-10.38.66-15.57.59-.84.47-1.77.3-2.7Z"/>
    <path class="cls-4" d="m141.12,265.55c-.14,1.39-.13,2.78.15,4.16.09.45.14.92.14,1.38-.02,7.9.77,15.76.82,23.66.02,3.69.27,7.41.83,11.08.3,2.01.47,4.05.7,6.07-5.67-.2-11-1.73-15.97-4.4-10.29-5.52-17.06-13.95-20-25.24-5.65-21.69,7.69-43.28,29.06-48.54.9-.22,1.81-.39,2.72-.58.06.36.11.72.17,1.08-.55,1.13-.53,2.24.09,3.34.03.96.05,1.91.08,2.87-.09,2.05-.33,4.1.25,6.12.06,1.01.12,2.02.16,3.03.16,4.23.31,8.46.47,12.7-.57.92-.32,1.75.26,2.54.03.24.06.48.08.72Z"/>
    <path class="cls-5" d="m139.89,240.44c-.03-.96-.05-1.91-.08-2.87.18-1.12.15-2.23-.09-3.34-.06-.36-.11-.72-.17-1.08-.06-2.62-.12-5.24-.19-7.86.64-1.04.58-1.21-.55-1.67-.19-3.72-.09-7.44.08-11.16.84-.08,1.36.27,1.76,1.03.9,1.72,1.65,3.5,2.75,5.13,1.45,2.14,2.73,4.39,4.08,6.58-.16.44-.27.88-.04,1.33-.27,1.83-.54,3.67-.81,5.5-.59,3.38-1.21,6.76-1.77,10.14-1.12,6.68-2.21,13.36-3.32,20.05-.26.02-.52.04-.77.06-.15-4.23-.31-8.46-.47-12.7-.04-1.01-.11-2.02-.16-3.03.31-2.05.28-4.1-.25-6.12Z"/>
    <path class="cls-10" d="m356.74,59.35c-1.45.58-2.99.52-4.5.61-.48.03-.84-.25-1.13-.63.71.07,1.38.27,2.13.1,1.14-.25,2.33-.32,3.5-.09Z"/>
    <path class="cls-5" d="m115.33,194.1c-.36.3-.71.6-1.07.9-.92.26-1.39-.68-2.15-.9h3.22Z"/>
    <path class="cls-18" d="m365.15,59.79c-1.36.18-2.68-.05-3.98-.45,1.36-.16,2.72-.32,3.98.45Z"/>
    <path class="cls-5" d="m120.87,195.58c1.01-.61,2.11-.54,3.21-.44-1.02.54-2.08.72-3.21.44Z"/>
    <path class="cls-5" d="m115.91,195.16c1.1-.11,2.21-.19,3.22.42-1.12.25-2.2.17-3.22-.42Z"/>
    <path class="cls-2" d="m138.82,223.62c1.14.46,1.19.63.55,1.67-.38-.49-.81-.97-.55-1.67Z"/>
    <path class="cls-18" d="m368.5,60.37c-.84.2-1.57-.09-2.29-.47.84-.2,1.62-.15,2.29.47Z"/>
    <path class="cls-10" d="m370.77,60.9c-.68.21-1.24-.07-1.77-.45.66-.14,1.29-.12,1.77.45Z"/>
    <path class="cls-18" d="m421.02,131.94c-1.09-.25-1.13-.31-.84-1.17.28.39.56.78.84,1.17Z"/>
    <path class="cls-5" d="m132.01,191.69c.28.15.51.34.39.71-.32-.05-.64-.09-.96-.14.19-.19.38-.38.57-.57Z"/>
    <path class="cls-5" d="m126.98,194.4c.21-.43.58-.51,1.01-.43-.3.24-.57.52-1.01.43Z"/>
    <path class="cls-5" d="m125.31,194.9c.24-.41.61-.45,1.03-.36-.31.22-.61.47-1.03.36Z"/>
    <path class="cls-7" d="m441.62,154.38c-.27-.15-.43-.35-.3-.68.34.12.42.36.3.68Z"/>
    <path class="cls-18" d="m127.92,117.33c.11.33-.06.54-.32.7-.11-.33-.03-.58.32-.7Z"/>
    <path class="cls-12" d="m344.17,476.27c-1.14,7.45-2.88,14.78-4.79,22.06-7.87,29.98-19.87,58.2-36.3,84.5-2.02,3.23-4.2,6.35-6.31,9.52,0,0,.01.04.01.04-.43.14-.66.46-.79.87,0,0-.13.16-.13.16,0,0-.11.11-.11.11-.98.59-1.58,1.56-2.32,2.38-2.24,2.49-4.44,5.02-6.66,7.53-.61.69-1.26,1.35-1.83,1.95-.78-.07-1.05-.61-1.39-1.03-2.86-3.43-5.7-6.88-8.56-10.31-.47-.56-.82-1.25-1.53-1.59,0,0-.13-.16-.13-.16,0,0-.11-.15-.11-.15-.13-.41-.35-.75-.79-.89,0,0,.02-.04.02-.04-8.95-12.62-16.57-26.01-23.28-39.94-10.78-22.38-18.66-45.74-23.71-70.06-.19-.91-.34-1.83-.51-2.74.3-.07.61-.14.91-.21,6.28,12.75,15.68,22.54,28.18,29.29,5.51,2.98,11.41,4.91,17.55,6.22,6.36,1.36,12.77,1.42,19.17.94,6.23-.48,12.27-2.06,18.06-4.46,8.91-3.69,16.62-9.09,23.16-16.17,4.45-4.82,8.09-10.19,10.87-16.14.31-.66.47-1.45,1.31-1.7Z"/>
    <path class="cls-2" d="m237.76,113.69c-.45-1.12-.62-1.27-1.22-.98-.83.41-1.67.83-2.45,1.33-3.67,2.36-7.23,4.87-10.32,8.01-.91.92-2.19,1.51-2.95,2.52-1.96,2.6-4.36,4.81-6.44,7.3-4.37,5.24-7.87,11.03-11.32,16.85-1.56,2.63-2.71,5.5-4.06,8.26-.07.15-.21.34-.35.38-.32.1-.51-.12-.62-.39-2.07-4.97-3.76-10.08-5.07-15.3-.81-3.24-1.34-6.53-1.17-9.91.06-1.21.02-2.42,0-3.63-.06-6.97,2.49-13.04,6.5-18.58,3.31-4.57,7.59-8.12,12.1-11.43.88-.65,2.14-.77,2.66-1.91,1.08.06,1.96-.48,2.88-.92,2.9-1.36,5.98-2.1,9.16-1.86,4.64.35,8.9,1.89,12.34,5.11,2.16,2.02,4.44,3.97,6.1,6.48.35.54.87.6,1.47.32,4.21-2,8.65-3.31,13.18-4.33,1.8-.41,3.64-.65,5.45-.97,4.81-.87,9.63-.41,14.45-.44,1.82-.01,3.66.46,5.47.83,1.03.21,2.04.35,3.02.02,1-.34,2.01-.33,3.03-.33,2.42,0,4.83-.01,7.25,0,1.3,0,2.6-.11,3.86.39.33.13.74.15,1.1.12,2.8-.27,5.54.38,8.29.68,1.93.21,3.85.51,5.8.52,1.72.96,3.68,1.13,5.55,1.6,8.53,2.16,16.58,5.32,23.83,10.46,3.45,2.45,6.5,5.3,9.23,8.45,2.98,3.44,5.26,7.42,7.3,11.49,1.71,3.41,3.16,6.93,4.18,10.61,1.03,3.75,1.65,7.59,1.92,11.47.04,2.98,0,5.94-.51,8.9-.85,5.02-2.53,9.71-5.15,14.07-.21.35-.38.87-1.09.62,0-.34-.01-.71,0-1.08.13-2.82-.84-5.32-2.39-7.59-2.42-3.53-5.71-6.06-9.46-7.99-.78.66-.86,1.53-1.14,2.29-3.38,9.28-9.73,15.69-18.81,19.48-5.74,2.39-11.73,3.56-17.91,3.85-2.83,0-5.65.02-8.48.03-.52-.04-1.05-.07-1.57-.11-1.42-.77-2.96-.54-4.48-.54-.37-.12-.35-.4-.18-.62,3.32-4.29,3.88-9.32,3.77-14.47-.05-2.29,0-4.64-.8-6.86-.07-.73-.07-1.49-.22-2.2-.99-4.63-2.29-9.18-3.96-13.61-1.37-3.65-2.74-7.3-4.58-10.74-4.51-8.46-11.13-14.75-19.66-19.07-.22-.11-.48-.34-.82.04.78,1,1.59,2.01,2.36,3.05,2.59,3.44,4.34,7.32,5.93,11.28,2.08,6.75,2.84,13.65,2.41,20.69-.24,3.81-.65,7.6-1.61,11.32-.25,0-.5,0-.74,0,.39-4.52.61-9.05.26-13.59-.71-9.13-3.55-17.54-8.55-25.22-.45-.69-1.05-1.28-1.59-1.92-2.01-3.38-4.76-6.12-7.61-8.76-.84-.78-1.78-1.22-2.91-1.48-3.8-.89-7.64-1.42-11.51-1.81-3.05-.31-6.09-.42-9.15-.15Z"/>
    <path class="cls-11" d="m376.15,339.88c-3.23.24-6.62-.12-9.95-1.1-5.31-1.56-10.24-3.86-14.48-7.49-1.2-1.02-2.55-1.86-3.6-3.07-3.75-4.29-7.02-8.85-8.79-14.38-.85-2.65-1.63-5.31-2.07-8.06-.13-.82-.1-1.67-.11-2.51-.02-1.58,0-3.17,0-4.75,0-6.69,2.08-12.79,5.44-18.46,1.85-3.11,3.97-6.07,6.72-8.48,2.51-2.2,5.1-4.3,8.1-5.84,2.57-1.32,5.17-2.55,7.94-3.37,2.4-.71,4.82-1.34,7.36-1.32.64,0,1.29-.12,1.92-.28,1.29-.34,2.56-.34,3.85,0,.62.16,1.27.25,1.92.29,6.15.36,11.74,2.31,17.01,5.49,3.81,2.3,7,5.26,9.85,8.56,2.42,2.8,4.42,5.97,5.85,9.44,1.06,2.58,1.89,5.22,2.46,7.96.19.91.42,1.8.41,2.74,0,.74.04,1.47.27,2.2.18.61.28,1.28.26,1.92-.11,4.93-.86,9.71-2.47,14.43-1.54,4.49-3.91,8.43-6.81,12.05-2.68,3.34-5.87,6.25-9.63,8.38-3.72,2.11-7.58,3.9-11.81,4.87-3.12.72-6.23.89-9.63.77Z"/>
    <path class="cls-11" d="m188.67,339.9c-1.58,0-2.61-.03-3.63,0-2.26.08-4.41-.46-6.56-1.03-2.51-.67-5-1.43-7.32-2.62-3.4-1.74-6.6-3.74-9.34-6.47-1.97-1.96-3.9-3.93-5.63-6.12-3-3.8-4.72-8.18-6.15-12.7-1.57-4.96-1.4-10.09-1.18-15.19.07-1.64.64-3.26,1.03-4.88,1.37-5.78,4.01-10.9,7.75-15.54,5.01-6.21,11.35-10.33,18.85-12.73,2.63-.84,5.3-1.71,8.15-1.57.63.03,1.27-.21,1.9-.35,1.01-.23,2.08-.33,3.04-.03,1.28.41,2.58.29,3.86.44,2.85.35,5.67.93,8.37,1.92,3.86,1.41,7.46,3.32,10.69,5.88,2.64,2.08,5,4.47,7.12,7.05,3.29,3.99,5.5,8.58,6.9,13.56.35,1.24.67,2.5.91,3.77.61,3.29,1.1,6.64.66,9.96-.54,4.03-1.28,8.01-2.81,11.85-1.46,3.68-3.43,7.05-5.83,10.09-2.88,3.64-6.35,6.78-10.41,9.15-3.62,2.12-7.43,3.74-11.54,4.71-3.11.73-6.22.99-8.83.84Z"/>
    <path class="cls-9" d="m367.9,155.91c-.27-3.89-.88-7.72-1.92-11.47-1.01-3.68-2.47-7.21-4.18-10.61-2.04-4.07-4.32-8.05-7.3-11.49-2.73-3.15-5.78-6-9.23-8.45-7.24-5.13-15.3-8.29-23.83-10.46-1.86-.47-3.82-.64-5.55-1.6,1.27-1.37,3.1-1.64,4.72-2.22,4.71-1.68,9.56-2.98,14.48-3.85,1.89-.33,3.8-.96,5.78-.7,4.22-1.05,8.52-.35,12.78-.54.93-.04,1.86-.04,2.75.35.25.11.54.17.81.17,2.35-.06,4.57.64,6.84,1.03,3.23.56,6.24,1.77,9.29,2.86,6.48,2.3,11.92,6.35,17.42,10.32,5.92,4.27,10.88,9.58,15.83,14.86,3.6,3.84,6.67,8.19,9.13,12.91.77,1.48,1.76,2.86,2.43,4.38,1.69,3.81,3.3,7.66,4.26,11.76.46,1.98,1.17,3.91,1.76,5.86.89,2.93,1.42,5.92,1.94,8.93.84,4.92.24,9.83.51,14.74.08,1.35-.38,2.57-.61,3.83-1.05,5.81-3.03,11.27-6.31,16.22-.66,1-1.32,2.01-1.98,3.01-.32.08-.53.27-.61.59-.3.36-.61.73-.91,1.09-.11.05-.19.14-.23.26l-.4.38c-.27-.01-.54-.03-.8-.04-.46-.43-.49-1.01-.56-1.58.05-.3-.06-.53-.32-.7-.5-1.25-1.12-2.45-1.35-3.79.04-.3-.08-.53-.33-.68-.26-.71-.52-1.42-.78-2.13.03-.3-.09-.52-.34-.67-.35-.66-.74-1.3-.8-2.08.03-.31-.09-.55-.36-.72-.4-.84-.82-1.66-1.2-2.51-3.71-8.22-7.92-16.17-13.19-23.51-.48-.67-.85-1.45-1.62-1.87-.58.26-.7.82-.93,1.31-1.49,3.23-3.47,6.12-5.74,8.85-2.51,3.01-5.51,5.48-8.49,7.99-2.23,1.3-4.18,3.06-6.58,4.1-.48-.7.13-1.09.36-1.49,1.53-2.69,2.74-5.49,3.45-8.5.3-1.28.52-2.55.38-3.87.46-.67.33-1.42.29-2.15-.37-6.96-3.35-12.74-8.06-17.73-.18-.19-.46-.28-.7-.41Z"/>
    <path class="cls-19" d="m289.13,288.14c.01,2.49-.04,4.61-.6,6.71-1.02,3.82-3.15,6.67-6.75,8.41-2.62,1.27-5.37,2.15-8.25,2.44-3.86.39-7.39-.71-10.4-3.19-2.1-1.72-3.84-3.76-5.19-6.15-.8-1.42-.98-2.69-.33-4.22,1.56-3.68,2.99-7.42,4.48-11.13,4-10.02,8-20.04,12.01-30.06.24-.6.51-1.2.79-1.79.15-.32.26-.75.67-.8.6-.08.75.48.94.86,4.96,9.62,9.21,19.51,11.56,30.14.66,3.01,1.17,6.02,1.08,8.77Z"/>
    <path class="cls-6" d="m342.15,260.59c-6.28-1.46-10.22-5.87-10.86-12.14-.22-2.18.36-4.23.93-6.28.59-.37.62-1.08.97-1.61,1.53-2.34,3.39-4.27,6.07-5.29.66-.19,1.37-.28,2.01-.86-.94-.23-1.73-.41-2.44.27-3.77.56-7.51,1.34-11.16,2.43-4.25,1.28-7.93,3.59-10.76,7.11-1.67,1.17-2.66,3.08-4.43,4.19-.47-.6.11-1.02.29-1.41.73-1.59,1.5-3.18,2.39-4.69,2.97-5.06,7.21-8.62,12.81-10.48,2.45-.81,4.88-1.7,7.45-2.13.67.19,1.23-.08,1.77-.44.17-.02.35-.04.52-.05,1,.16,1.95,0,2.84-.5.53-.03,1.07-.06,1.6-.09,3.37,0,6.75.02,10.12.02.54.02,1.08.05,1.63.07.91.49,1.87.63,2.88.44.35.03.7.06,1.04.09.88.48,1.82.7,2.82.52.17.01.35.03.52.05.68.49,1.43.69,2.27.51,2.22.33,4.28,1.06,6.24,2.19,2.72,1.57,5.5,3.04,8.26,4.55-.14.56-.69.31-1.01.51-.75-.2-1.5-.4-2.25-.6-.46-.52-1.04-.67-1.71-.52,0,0-.05-.03-.05-.03-.42-.5-.94-.68-1.57-.52-1.32-.38-2.64-.75-3.95-1.13-1-.89-2.25-.44-3.38-.66-1.67-.76-3.4-.42-5.12-.34-1.58-.03-3.17-.08-4.75-.08-2.33,0-4.65.04-6.98.06-.09,0-.21-.02-.27.02-.31.2.36.2-.08.29.76.22,1.46.43,2.16.63,2.15.66,3.84,2.05,5.53,3.44,1.83,2.17,3.13,4.57,3.5,7.46.81,6.32-2.63,12.16-8.59,14.39-.69.26-1.42.4-2.14.59-1.7,0-3.41,0-5.11,0Zm2.44-15.17c-1.07.05-1.88.9-1.89,1.97-.02,1.21.88,2.06,2.11,2.01,1.1-.04,1.89-.85,1.9-1.95.01-1.19-.93-2.09-2.11-2.03Z"/>
    <path class="cls-6" d="m213.13,226.37c9.18,2.12,17.24,6.3,23.96,12.95-.04.34-.33.42-.57.55-.53-.21-1.06-.43-1.59-.64-1.43-1.03-3.06-1.57-4.83-2.13.1.34.1.52.19.64.58.71,1.17,1.41,1.76,2.11.88,1.53,1.48,3.14,1.87,4.87,1.34,6.06-2.78,13.73-9.72,15.22-.79-.09-1.57-.19-2.2.47-.92.15-1.85.15-2.77-.01-.61-.66-1.39-.55-2.16-.47-9.88-2.48-13.13-15.21-5.81-22.41.4-.39.82-.75,1.22-1.13,1.49-.78,2.81-1.91,4.56-2.12.62.06,1.23.07,1.64-.53-.03-.28-.12-.5-.44-.58-4.09-1.03-8.19-2-12.41-2.33-1.06-.56-2.2-.51-3.34-.44-1.31-.06-2.62-.13-3.94-.19-1.69-.65-3.37-.63-5.06,0-1.5.06-2.99.13-4.49.19-1.15-.1-2.28-.09-3.36.39-.75.04-1.5.09-2.25.13-.77-.07-1.53-.07-2.17.47-.4.01-.8.02-1.2.04-.52-.01-1.04-.05-1.55-.04-.45,0-.86-.03-1.15-.43,4.31-2.6,8.99-4.22,13.93-5.12.84.18,1.6.02,2.3-.47.55-.02,1.1-.04,1.66-.06,3.36-.02,6.73-.04,10.09-.06.54,0,1.09-.02,1.63-.03.36.04.73.09,1.09.13.89.47,1.82.68,2.83.51.17.01.35.03.52.05.53.37,1.09.64,1.76.45Zm7.89,19.06c-1.1,0-1.9.79-1.95,1.9-.05,1.25.77,2.11,2.02,2.08,1.05-.02,1.94-.85,2-1.88.06-1.1-.93-2.11-2.07-2.1Z"/>
    <path class="cls-15" d="m367.9,155.91c.24.14.52.22.7.41,4.71,4.99,7.69,10.77,8.06,17.73.04.72.18,1.48-.29,2.15-.66-.89-1.31-1.79-1.98-2.67-.49-.64-.94-1.35-1.86-1.73-.22,1.14-.39,2.12-.59,3.09-.71,3.52-2.55,6.33-5.29,8.61-1.94,1.62-4.05,2.97-6.37,3.98-.34.15-.69.28-1.05.34-.41.07-.76-.15-.78-.57-.03-1.02.03-2.05.05-3.07.04-2.14-.97-3.71-2.66-4.94-1.71-1.25-3.67-1.74-5.72-1.99-.76-.09-1.22.26-1.49.96-1.2,3.09-3.02,5.76-5.55,7.92-3.01,2.58-6.45,4.38-10.19,5.65-5.12,1.74-10.38,2.77-15.76,3.4-6.04.71-12.08.43-18.12.45-.36,0-.71-.07-1.06-.11-.02-.24-.1-.52-.03-.57,2.17-1.4,3.78-3.27,4.79-5.65.07-.16.24-.27.37-.41,2.18,0,4.37,0,6.55-.01.64,0,1.28.02,1.81-.43,6.18-.29,12.17-1.46,17.91-3.85,9.08-3.79,15.43-10.19,18.81-19.48.28-.77.36-1.63,1.14-2.29,3.75,1.93,7.05,4.46,9.46,7.99,1.55,2.27,2.52,4.77,2.39,7.59-.02.37,0,.74,0,1.08.7.25.87-.26,1.09-.62,2.62-4.36,4.29-9.05,5.15-14.07.5-2.96.54-5.92.51-8.9Z"/>
    <path class="cls-9" d="m146.64,232.04c.27-1.83.54-3.67.81-5.5.63-.06.94.37,1.23.81.33.51.63,1.06,1.35,1.34.04.01-.04-.01-.11-.03.04.07.06.15.11.21.03.03.11.02.16.03-.02-.06-.03-.12-.16-.21-.06-1.61-.97-2.76-1.85-3.93-.62-.88-.07-1.81-.14-2.72.63-3.7,1.29-7.4,1.87-11.11.27-1.71.96-3.37.69-5.15.67-1.46.61-3.07.94-4.6.31-1.45.47-2.93.68-4.4.12-.84.39-1.63.83-2.35,2.38-3.98,5.75-6.76,10.11-8.35.14-.05.34.04.71.08-.29,1.81-.63,3.62-.85,5.44-.52,4.26-.61,8.51.13,12.77.79,4.51,2.74,8.43,5.66,11.91.03,1.84.95,3.38,1.7,4.98.29.61-.01,1.12-.66,1.21-2.14.33-4.08-.08-5.7-1.59-.75-.7-1.46-1.44-2.16-2.18-.39-.4-.71-.87-1.1-1.26-.94-.93-1.98-.78-2.42.4-.32.86-.57,1.78-.69,2.69-.52,3.98-.65,7.94-.17,11.96.35,2.95.58,5.92,1.2,8.83.07.34.01.72.01,1.12-3.24-.94-8.03-5.08-12.15-10.41Z"/>
    <path class="cls-6" d="m185.69,204.32c.29-1.06,1.24-1.67,1.96-2.27,1.56-1.28,2.92-2.81,4.67-3.89,1.47-.91,2.83-2,4.23-3.02,1.21.11,2.17-.46,3.1-1.13,1.34-.24,2.49-1.1,3.89-1.16.48.13.87,0,1.15-.41.18-.04.36-.08.54-.13.55-.02,1.1-.04,1.65-.06.79.05,1.61.23,2.28-.4.56,0,1.12,0,1.68,0,1.41.79,2.93.49,4.43.49,2.43.13,4.72.88,7.02,1.6,9.82,3.06,18.76,7.9,27.35,13.45.22.14.4.37.58.57.06.06.07.17.1.26-.06.07-.1.16-.17.21-1.44,1.01-2.76,2.38-4.36,2.91-1.66.55-3.38-.63-5.08-1.04-.27-.07-.55-.1-.82-.15-.43-.51-.98-.64-1.61-.48-.19-.02-.37-.04-.56-.06-.49-.49-1.07-.66-1.75-.49-.16-.03-.32-.06-.48-.07-.49-.5-1.08-.65-1.75-.48-.16-.03-.32-.05-.49-.07-.49-.49-1.08-.65-1.76-.48-.18-.03-.36-.06-.54-.1-.44-.51-.99-.63-1.62-.46-1.11-.22-2.22-.44-3.34-.65-.5-.5-1.1-.63-1.77-.46-.16-.03-.33-.05-.5-.06-.69-.5-1.44-.71-2.29-.52-1.1-.2-2.19-.41-3.29-.61-.69-.52-1.46-.68-2.3-.49-.17-.03-.34-.04-.5-.05-.88-.54-1.82-.72-2.84-.53-.18-.03-.37-.05-.55-.08-.83-.62-1.76-.64-2.73-.47-.39-.04-.78-.08-1.16-.12-.23-.13-.45-.37-.69-.39-2.34-.2-4.68-.22-7.02-.01-.24.02-.46.25-.69.38-.36.04-.72.09-1.08.13-1.02-.19-1.99-.14-2.88.47-.34.03-.68.07-1.02.1-.68-.17-1.27-.04-1.77.46-.16.01-.32.04-.48.07-.68-.18-1.25.01-1.74.51-2.22.42-4.19,1.6-6.63,2.32.31-1.38.94-2.29,1.67-3.15Z"/>
    <path class="cls-6" d="m357.31,207.96c1.23-.06,2.4.32,3.51.72,4.51,1.66,8.94,3.49,13.07,5.96,1.98,1.18,3.9,2.44,5.55,4.1-.37.62-.83.36-1.21.31-.36-.04-.7-.24-1.06-.32-.45-.1-.91-.15-1.37-.22-.49-.55-1.1-.62-1.77-.46-.16-.03-.32-.05-.49-.07-.5-.5-1.09-.63-1.77-.47-.16-.03-.33-.05-.5-.06-.68-.51-1.44-.71-2.28-.52-.18-.03-.37-.06-.55-.09-.45-.51-1-.6-1.63-.43-1.31-.21-2.62-.42-3.93-.62-1.07-.6-2.21-.71-3.4-.51-1.69,0-3.38-.02-5.08-.02-2.05-.16-4.1-.28-6.07.5-.37.03-.74.06-1.11.08-1.19-.17-2.35-.13-3.42.49-.17,0-.34.02-.5.04-1.19-.17-2.32-.05-3.38.55-.17,0-.34.02-.51.05-.84-.19-1.61-.03-2.31.49-1.09.21-2.19.42-3.28.62-.67-.16-1.28-.05-1.77.46-1.65.4-3.3.79-4.95,1.19-.68-.16-1.27-.02-1.75.5-.18.03-.37.05-.55.07-.64-.17-1.16,0-1.6.5,0,0-.05.03-.05.03-.67-.15-1.25,0-1.71.52-1.31.39-2.62.77-3.93,1.16-.44-.12-.83-.08-1.07.39-3.98,1.25-7.88,2.72-11.72,4.35-1.04.44-1.89.45-2.87-.14-2.7-1.62-5.45-3.15-8.18-4.71.3-.57.73-.73,1.14-.87,12.71-4.37,25.53-8.34,38.66-11.24.27-.06.55-.07.83-.1.67.18,1.25,0,1.76-.45.35-.05.7-.1,1.05-.14.65.17,1.21-.03,1.72-.42.36-.03.72-.05,1.08-.08,1.01.18,1.94-.04,2.84-.51.35-.03.7-.06,1.04-.09,1.01.19,1.98.05,2.88-.44.54-.03,1.08-.05,1.62-.08,3,0,5.99,0,8.99,0Z"/>
    <path class="cls-3" d="m331.6,331.97c1.1.35,1.65,1.13,1.77,2.25.11,1.1-.31,1.97-1.14,2.69-2.25,1.95-4.64,3.69-7.19,5.22-4.78,2.88-9.87,5.06-15.16,6.84-5.72,1.92-11.55,3.34-17.48,4.43-.6-.11-1.18-.09-1.65.38-.6.05-1.19.11-1.78.16-.34-.12-.66-.11-.93.17-.78.13-1.57.27-2.35.4-.77-.09-1.54-.15-2.2.38-.78.05-1.57.11-2.35.16-.51-.12-1.02-.16-1.47.19-1.16.13-2.32.26-3.47.39-.96-.09-1.92-.2-2.81.34-1.48.08-2.97.16-4.45.24-1.15-.1-2.31-.24-3.41.28-8.71.31-17.41.31-26.12.02-.71-.47-1.49-.37-2.26-.3-.17-.07-.35-.12-.5-.21-1.01-.6-1.65-1.49-1.53-2.68.12-1.16.71-2.05,1.91-2.4,1.53.17,3.06.32,4.59.05,7.06.2,14.11.18,21.17,0,2.07.15,4.14.35,6.15-.4.93-.05,1.87-.09,2.8-.14,1.33.12,2.67.31,3.91-.41,11.3-1.16,22.47-2.96,33.26-6.7,3.34-1.16,6.61-2.49,9.75-4.1,3.24-1.66,6.29-3.6,9.1-5.92.64-.53,1.19-1.2,2.06-1.37.59.02,1.18.03,1.77.05Z"/>
    <path class="cls-8" d="m414.21,206.46c.06.57.1,1.15.56,1.58.24.65.51.53.8.04.13-.13.26-.25.4-.38,0,0,.2-.05.2-.05l.03-.2c.3-.36.61-.73.91-1.09,0,0,.26-.02.26-.02h.26c-.22,2.04-.36,4.09-1.06,6.05-1.2.86-2.4,1.74-3.62,2.58-.44.3-1.01.02-.98-.48.35-7.22-2.82-13.34-6.14-19.37-2.69-4.88-5.9-9.45-9.22-13.92-.21-.28-.5-.5-.74-.73-.74.2-.51.77-.58,1.16-.57,2.93-1.38,5.76-3.15,8.25-2.59,3.67-6.13,5.57-10.56,5.84-1.57.09-3.16,0-4.73-.05-.79-.03-1.03-.43-.7-1.07.3-.58.67-1.11.97-1.69,1.13-2.17,1.81-4.44,1.65-6.92,2.97-2.51,5.98-4.98,8.49-7.99,2.27-2.72,4.25-5.62,5.74-8.85.23-.49.35-1.05.93-1.31.77.42,1.14,1.2,1.62,1.87,5.28,7.34,9.48,15.29,13.19,23.51.38.84.8,1.67,1.2,2.51-.03.31.09.55.36.72.06.77.45,1.42.8,2.08-.06.31.08.52.34.67.26.71.52,1.42.78,2.13-.06.31.07.53.33.68.22,1.34.84,2.55,1.34,3.79-.06.31.06.54.32.7Z"/>
    <path class="cls-17" d="m278.77,134.63c-1.59-3.96-3.34-7.84-5.93-11.28-.78-1.03-1.59-2.04-2.36-3.05.33-.37.59-.15.82-.04,8.53,4.32,15.15,10.61,19.66,19.07,1.84,3.45,3.21,7.1,4.58,10.74,1.67,4.43,2.97,8.98,3.96,13.61.15.72.15,1.47.22,2.2-.79,1.25-1.56,2.51-2.36,3.75-1.67,2.58-3.55,5-5.84,7.07-.6.54-1.14,1.24-2.19,1.28-.28-1.03.25-1.98.27-2.96.13-4.55.35-9.12-.04-13.65-.77-8.93-3.22-17.31-8.66-24.62-.61-.82-1.12-1.72-2.13-2.13Z"/>
    <path class="cls-13" d="m237.76,113.69c3.06-.26,6.1-.15,9.15.15,3.88.39,7.72.92,11.51,1.81,1.13.27,2.07.7,2.91,1.48,2.86,2.65,5.6,5.39,7.61,8.76-.65.07-1.11-.69-2-.36.39.83.97,1.51,1.48,2.22,3.63,5.02,6.16,10.54,7.49,16.58.91,4.16,1.52,8.39,1.3,12.66-.16,3.04-.63,6.06-.97,9.09-.32.05-.64.11-.95.16.08-.36.22-.72.25-1.09,1.16-14.61-2.7-27.63-12.36-38.79-1.03-1.2-2.12-2.35-3.2-3.5-.78-.83-1.73-1.35-2.85-1.66-3.86-1.06-7.76-1.85-11.76-2.17-2.69-.21-5.37-.51-8.07-.43.16-1.64.31-3.28.47-4.92Z"/>
    <path class="cls-19" d="m301.08,368.66c.06.51-.25.88-.54,1.23-2.52,2.93-5.45,5.31-9.04,6.82-3.31,1.39-6.72,1.45-10.08.42-3.06-.93-5.73-2.63-8.02-4.88-.19-.19-.42-.47-.21-.73.14-.17.46-.25.7-.24.55.02,1.12.06,1.66.18,1.38.31,2.81.37,4.16.13,2.94-.51,5.92-.34,8.87-.87,3.74-.67,7.49-1.27,11.21-2.06.44-.09.87-.29,1.31,0Z"/>
    <path class="cls-12" d="m217.04,234.28c-1.75.21-3.07,1.34-4.56,2.12-.06-.48-.19-.92-.76-1.01-3.83-.6-7.66-1.13-11.48-1.81-3.36-.6-6.7-1.29-10.09-1.74-.8-.11-1.56-.53-2.34-.81.39-.21.79-.41,1.18-.62,1.5-.06,2.99-.13,4.49-.19,1.69.19,3.37.17,5.06,0,1.31.06,2.62.13,3.94.19,1.04.74,2.2.52,3.34.44,4.22.33,8.32,1.31,12.41,2.33.31.08.41.3.44.58-.63-.09-1.17.12-1.64.53Z"/>
    <path class="cls-12" d="m339.25,235.28c-2.67,1.02-4.54,2.95-6.07,5.29-.34.53-.38,1.23-.97,1.61-.23-.29-.46-.59-.9-.5-4.07.79-8.14,1.56-12.21,2.38-.74.15-1.46.23-2.2.18,2.83-3.51,6.5-5.82,10.76-7.11,3.64-1.1,7.38-1.87,11.16-2.43.14.2.28.39.42.59Z"/>
    <path class="cls-9" d="m335.42,226.36c-3.67.67-7.07,2.1-10.4,3.68-3.09,1.47-6.03,3.21-8.91,5.05-.78.49-1.57.96-2.36,1.43-.23-.22-.45-.45-.68-.67,5.28-5.41,11.51-9.13,18.99-10.62.66.14,1.27.06,1.79-.41,2.01-.15,4.02-.16,6.03,0-.53.32-1.06.64-1.59.97-.36.04-.73.08-1.09.12-.67-.16-1.27-.06-1.78.44Z"/>
    <path class="cls-9" d="m209.77,222.02c2.02,0,4.04,0,6.05.01.52.46,1.12.55,1.78.41,1.96.17,3.76.9,5.55,1.63,5.1,2.07,9.64,4.99,13.43,9.02-.16.44-.53.51-.93.54-1.89-1.16-3.76-2.34-5.66-3.47-4.45-2.65-9.11-4.85-14.12-6.25-.53-.15-1.08-.23-1.62-.34-.5-.5-1.11-.6-1.77-.44-.36-.04-.73-.08-1.09-.12-.38-.58-1.29-.3-1.61-.98Z"/>
    <path class="cls-12" d="m364,234.13c1.13.22,2.39-.23,3.38.66-3.97.75-7.95,1.51-11.92,2.24-.68.12-.92.51-.97,1.12-1.69-1.39-3.38-2.78-5.53-3.44.57-.66,1.35-.48,2.07-.49,2.68-.04,5.37-.05,8.05-.07,1.64,0,3.28-.01,4.92-.02Z"/>
    <path class="cls-13" d="m275.29,166.25c.32-.05.64-.11.95-.16.11,2.27-.96,4.3-1.34,6.48-.06.32-.22.72-.83.89-.16-2.54.81-4.83,1.22-7.21Z"/>
    <path class="cls-2" d="m205.29,225.25c-3.36.02-6.73.04-10.09.06,1.13-.52,2.35-.51,3.55-.52,2.13,0,4.27.05,6.4.07.03.13.08.26.13.38Z"/>
    <path class="cls-10" d="m352.27,228.65c-3.37,0-6.75-.02-10.12-.02.16-.08.32-.22.5-.24,3.22-.39,6.44-.64,9.62.27Z"/>
    <path class="cls-12" d="m232.05,239.85c-.59-.7-1.18-1.4-1.76-2.11-.09-.11-.09-.3-.19-.64,1.76.56,3.39,1.1,4.83,2.13-.54-.05-1.08-.09-1.62-.15-.61-.06-1.06.14-1.25.77Z"/>
    <path class="cls-10" d="m357.31,207.96c-3,0-5.99,0-8.99,0,3-.78,5.99-.9,8.99,0Z"/>
    <path class="cls-2" d="m199.64,203.41c.23-.13.45-.36.69-.38,2.34-.2,4.68-.19,7.02.01.24.02.46.25.69.39-2.8,0-5.61-.01-8.41-.02Z"/>
    <path class="cls-10" d="m311.45,188.46c-.53.45-1.18.43-1.81.43-2.18,0-4.37,0-6.55.01-.04-.14-.08-.28-.11-.42,2.83,0,5.65-.02,8.48-.03Z"/>
    <path class="cls-2" d="m278.91,170.43c-.15,1.26-.44,2.47-1.33,3.78-.49-1.74.27-3,.62-4.33.24.18.47.37.7.55Z"/>
    <path class="cls-2" d="m235.65,233.64c.4-.03.77-.1.93-.54.85.51,1.46,1.22,2.13,2.55-1.39-.7-2.29-1.24-3.06-2.01Z"/>
    <path class="cls-10" d="m348.35,215.75c1.97-.77,4.02-.66,6.07-.5-2.02.2-4.01.78-6.07.5Z"/>
    <path class="cls-19" d="m268.94,350.56c-2.01.76-4.08.55-6.15.4,2.02-.67,4.09-.46,6.15-.4Z"/>
    <path class="cls-2" d="m177.31,230.97c.29.4.7.44,1.15.43.52,0,1.04.02,1.55.04-1.29.48-2.6.8-4,.56-.24-.62.36-.52.57-.72.18-.17.48-.21.73-.31Z"/>
    <path class="cls-2" d="m278.91,170.43c-.23-.18-.47-.37-.7-.55.32-1.06-.04-2.25.63-3.25.25,0,.5,0,.74,0,.23,1.34-.58,2.5-.67,3.79Z"/>
    <path class="cls-10" d="m428.69,251.53c.17.93.29,1.85-.3,2.7-.8-.72-.81-1.66-.7-2.62.33-.02.66-.05,1-.07Z"/>
    <path class="cls-2" d="m313.07,235.86c.23.22.45.45.68.67-.63.8-1.53,1.18-2.52,1.82.16-1.36,1.03-1.91,1.84-2.49Z"/>
    <path class="cls-18" d="m342.15,260.59c1.7,0,3.41,0,5.11,0-2.05.79-3.07.79-5.11,0Z"/>
    <path class="cls-10" d="m140.77,262.29c.26-.02.52-.04.77-.06-.01.75-.03,1.5-.04,2.25-.16.12-.31.24-.47.35-.58-.8-.83-1.63-.26-2.54Z"/>
    <path class="cls-2" d="m215.26,192.35c-1.49,0-3.02.3-4.43-.49,1.51-.18,3-.16,4.43.49Z"/>
    <path class="cls-19" d="m241.61,350.95c-1.53.27-3.06.12-4.59-.05,1.54-.65,3.07-.46,4.59.05Z"/>
    <path class="cls-10" d="m338.29,225.8c.53-.32,1.06-.64,1.59-.97.46-.12.9-.16,1.28.34-.86.71-1.83.8-2.87.62Z"/>
    <path class="cls-18" d="m296.93,187.84c1.51,0,3.06-.23,4.48.54-1.53.16-3.05.22-4.48-.54Z"/>
    <path class="cls-7" d="m199.65,194.02c-.93.67-1.89,1.24-3.1,1.13.71-.75,1.47-1.45,2.49-1.78.2.22.41.43.61.65Z"/>
    <path class="cls-10" d="m209.77,222.02c.32.68,1.23.4,1.61.98-.81.19-1.59.06-2.34-.27-.2-.09-.33-.33-.49-.5.23-.1.46-.23.7-.29.16-.04.34.04.52.07Z"/>
    <path class="cls-10" d="m376.92,237.59c.32-.2.87.05,1.01-.51.5-.07.77.38,1.18.52.21.07.32.24.21.41-.08.12-.27.21-.41.22-.74.05-1.39-.2-1.98-.64Z"/>
    <path class="cls-19" d="m275.65,350.01c-1.24.72-2.58.53-3.91.41,1.25-.65,2.59-.48,3.91-.41Z"/>
    <path class="cls-18" d="m359.49,215.28c1.19-.19,2.33-.09,3.4.51-1.19.22-2.32-.02-3.4-.51Z"/>
    <path class="cls-7" d="m265.53,356.47c1.1-.53,2.26-.39,3.41-.28-1.09.69-2.25.5-3.41.28Z"/>
    <path class="cls-18" d="m343.82,216.33c1.07-.62,2.23-.67,3.42-.49-1.09.5-2.22.73-3.42.49Z"/>
    <path class="cls-7" d="m183.39,230.93c.75-.04,1.5-.09,2.25-.13.42.08.85.16,1.27.24-1.18.52-2.4.33-3.61.17.05-.09.08-.18.09-.28Z"/>
    <path class="cls-18" d="m339.93,216.91c1.06-.6,2.2-.72,3.38-.55-1.08.48-2.19.77-3.38.55Z"/>
    <path class="cls-10" d="m186.91,231.03c-.42-.08-.85-.16-1.27-.24,1.08-.48,2.22-.49,3.36-.39-.39.21-.79.41-1.18.62-.3,0-.61,0-.91,0Z"/>
    <path class="cls-7" d="m273.38,355.95c.89-.53,1.85-.43,2.81-.34-.87.65-1.84.52-2.81.34Z"/>
    <path class="cls-18" d="m195.68,204.01c.89-.61,1.86-.66,2.88-.47-.91.44-1.85.71-2.88.47Z"/>
    <path class="cls-10" d="m210.84,225.86c-1,.17-1.94-.04-2.83-.51,1.02-.23,1.96-.06,2.83.51Z"/>
    <path class="cls-10" d="m209.21,203.54c.97-.18,1.9-.16,2.73.47-.98.24-1.86-.07-2.73-.47Z"/>
    <path class="cls-18" d="m212.5,204.08c1.02-.2,1.96,0,2.84.53-1.02.24-1.95-.04-2.84-.53Z"/>
    <path class="cls-10" d="m340.54,228.72c-.89.5-1.84.66-2.84.5.88-.57,1.82-.74,2.84-.5Z"/>
    <path class="cls-10" d="m356.78,229.16c-1.01.19-1.97.04-2.88-.44,1.01-.19,2-.2,2.88.44Z"/>
    <path class="cls-10" d="m360.64,229.78c-1.01.18-1.94-.04-2.82-.52,1.02-.23,1.95-.03,2.82.52Z"/>
    <path class="cls-10" d="m342.77,208.58c-.89.47-1.83.69-2.84.51.87-.59,1.82-.72,2.84-.51Z"/>
    <path class="cls-10" d="m346.69,208.04c-.91.49-1.87.64-2.88.44.89-.63,1.87-.64,2.88-.44Z"/>
    <path class="cls-18" d="m221.43,205.76c.85-.19,1.6.02,2.29.52-.85.24-1.59-.06-2.29-.52Z"/>
    <path class="cls-10" d="m183.39,230.93c0,.1-.04.19-.09.28-.68.25-1.36.41-2.08.19.64-.54,1.4-.54,2.17-.47Z"/>
    <path class="cls-10" d="m363.43,230.34c-.83.18-1.58-.03-2.27-.51.85-.24,1.58.06,2.27.51Z"/>
    <path class="cls-18" d="m215.84,204.66c.84-.19,1.61-.03,2.3.49-.85.24-1.6-.04-2.3-.49Z"/>
    <path class="cls-6" d="m236.52,239.87c.24-.13.53-.22.57-.55.16.08.35.13.47.25.18.19.34.46.09.7-.1.1-.36.15-.49.09-.24-.11-.43-.32-.64-.49Z"/>
    <path class="cls-18" d="m369,216.94c.85-.19,1.6.01,2.28.52-.85.23-1.59-.07-2.28-.52Z"/>
    <path class="cls-18" d="m337.11,217.45c.69-.52,1.46-.68,2.31-.49-.71.46-1.45.73-2.31.49Z"/>
    <path class="cls-2" d="m217.07,259.93c.77-.08,1.55-.19,2.16.47-.81.23-1.49-.11-2.16-.47Z"/>
    <path class="cls-2" d="m222,260.42c.63-.66,1.41-.56,2.2-.47-.68.43-1.39.7-2.2.47Z"/>
    <path class="cls-7" d="m237.14,356.19c.78-.07,1.56-.17,2.26.3-.79.2-1.59.37-2.26-.3Z"/>
    <path class="cls-10" d="m193.54,225.37c-.7.5-1.46.65-2.3.47.69-.5,1.45-.71,2.3-.47Z"/>
    <path class="cls-7" d="m283.48,354.87c.67-.53,1.43-.47,2.2-.38-.65.6-1.42.54-2.2.38Z"/>
    <path class="cls-2" d="m209.16,191.86c-.67.63-1.49.45-2.28.4.04-.13.07-.26.1-.39.73,0,1.45,0,2.18,0Z"/>
    <path class="cls-10" d="m238.28,209.67c.63-.17,1.18-.04,1.61.48-.65.21-1.13-.14-1.61-.48Z"/>
    <path class="cls-7" d="m290.76,353.77c.47-.47,1.04-.49,1.65-.38-.46.51-1.03.54-1.65.38Z"/>
    <path class="cls-10" d="m206.98,191.87c-.03.13-.07.26-.1.39-.55.02-1.1.04-1.65.06.52-.39,1.08-.64,1.75-.46Z"/>
    <path class="cls-10" d="m366.83,216.41c.63-.18,1.18-.08,1.63.43-.64.23-1.15-.05-1.63-.43Z"/>
    <path class="cls-19" d="m279.67,355.23c.45-.35.96-.31,1.47-.19-.45.35-.93.5-1.47.19Z"/>
    <path class="cls-18" d="m371.78,217.52c.67-.17,1.27-.03,1.77.47-.69.23-1.24-.07-1.77-.47Z"/>
    <path class="cls-18" d="m332.06,218.53c.5-.51,1.1-.63,1.77-.46-.53.38-1.08.69-1.77.46Z"/>
    <path class="cls-18" d="m192.88,204.57c.5-.49,1.1-.63,1.77-.46-.53.4-1.08.69-1.77.46Z"/>
    <path class="cls-10" d="m336.08,209.73c-.51.44-1.09.63-1.76.45.5-.48,1.09-.65,1.76-.45Z"/>
    <path class="cls-18" d="m374.04,218.05c.67-.15,1.28-.08,1.77.46-.69.22-1.24-.1-1.77-.46Z"/>
    <path class="cls-18" d="m325.36,220.22c.48-.52,1.07-.66,1.75-.5-.52.38-1.06.71-1.75.5Z"/>
    <path class="cls-18" d="m190.66,205.15c.49-.49,1.06-.68,1.74-.51-.52.38-1.05.72-1.74.51Z"/>
    <path class="cls-18" d="m372.96,236.47c.67-.15,1.24,0,1.71.52-.68.19-1.2-.13-1.71-.52Z"/>
    <path class="cls-10" d="m371.33,235.92c.63-.16,1.16.01,1.57.52-.65.19-1.11-.17-1.57-.52Z"/>
    <path class="cls-10" d="m323.21,220.79c.43-.49.96-.67,1.6-.5-.47.35-.95.71-1.6.5Z"/>
    <path class="cls-18" d="m321.45,221.34c.46-.53,1.04-.67,1.71-.52-.5.39-1.03.71-1.71.52Z"/>
    <path class="cls-18" d="m338.86,209.16c-.51.39-1.07.6-1.72.42.48-.54,1.06-.63,1.72-.42Z"/>
    <path class="cls-18" d="m224.22,206.34c.67-.17,1.27-.04,1.77.46-.69.24-1.24-.07-1.77-.46Z"/>
    <path class="cls-10" d="m229.33,207.45c.63-.17,1.18-.05,1.62.46-.65.22-1.14-.1-1.62-.46Z"/>
    <path class="cls-10" d="m337.18,229.26c-.54.36-1.09.63-1.77.44.49-.56,1.1-.62,1.77-.44Z"/>
    <path class="cls-18" d="m235.97,209.12c.68-.17,1.26,0,1.75.49-.69.23-1.23-.1-1.75-.49Z"/>
    <path class="cls-10" d="m217.61,222.45c-.66.14-1.26.05-1.78-.41.67-.2,1.26-.05,1.78.41Z"/>
    <path class="cls-18" d="m421.04,223.12c.09-.22.14-.47.28-.66.14-.19.41-.35.63-.15.2.17.22.44.07.69-.33.04-.65.08-.98.12Z"/>
    <path class="cls-18" d="m212.47,223.13c.67-.16,1.27-.05,1.77.44-.68.21-1.23-.09-1.77-.44Z"/>
    <path class="cls-18" d="m233.73,208.56c.68-.17,1.26-.02,1.75.48-.69.23-1.23-.11-1.75-.48Z"/>
    <path class="cls-7" d="m205.29,225.25c-.06-.12-.1-.25-.13-.38.65-.2,1.27-.21,1.77.35-.54,0-1.09.02-1.63.03Z"/>
    <path class="cls-10" d="m333.85,224.84c-.52.47-1.13.54-1.79.41.52-.46,1.12-.6,1.79-.41Z"/>
    <path class="cls-18" d="m231.49,208.01c.68-.17,1.26-.01,1.76.48-.69.23-1.23-.09-1.76-.48Z"/>
    <path class="cls-10" d="m213.13,226.37c-.67.19-1.23-.08-1.76-.45.67-.19,1.27-.09,1.76.45Z"/>
    <path class="cls-18" d="m335.42,226.36c.5-.5,1.11-.6,1.78-.44-.54.35-1.1.65-1.78.44Z"/>
    <path class="cls-19" d="m331.6,331.97c-.59-.02-1.18-.03-1.77-.05.61-.54,1.2-.53,1.77.05Z"/>
    <path class="cls-12" d="m273.88,174.96c-.03.07-.03.18-.08.2-.16.08-.25-.02-.22-.23,0-.06.11-.11.16-.16.05.06.09.13.14.19Z"/>
    <path class="cls-11" d="m141.04,264.83c.16-.12.31-.24.47-.35.04.42-.04.8-.39,1.08-.03-.24-.05-.48-.08-.72Z"/>
    <path class="cls-19" d="m288.04,354.09c.27-.28.59-.29.93-.17-.27.28-.56.45-.93.17Z"/>
    <path class="cls-2" d="m204.68,192.45c-.28.42-.67.54-1.15.41.31-.36.67-.54,1.15-.41Z"/>
    <path class="cls-18" d="m409.66,237.65c.23-.03.46-.06.68-.09-.09.37-.33.62-.7.53-.31-.07-.32-.3.01-.44Z"/>
    <path class="cls-10" d="m316.45,222.89c.23-.47.62-.5,1.07-.39-.31.25-.61.52-1.07.39Z"/>
    <path class="cls-2" d="m417.62,206.34h-.26s-.26.01-.26.01c.08-.32.29-.52.61-.59-.03.19-.06.39-.09.58Z"/>
    <path class="cls-7" d="m225.87,478.29c-.3.07-.61.14-.91.21-.35-1.07-.75-2.14-.62-3.3.71.93,1.19,1.98,1.53,3.09Z"/>
    <path class="cls-5" d="m150.59,205.8c.27,1.78-.42,3.44-.69,5.15-.58,3.71-1.24,7.4-1.87,11.11-.67-.08-1.24-.24-1.49-1.01-.73-2.2-1.37-4.39-1.73-6.7-.29-1.84-.44-3.66-.52-5.51-.17-4.22.74-8.27,1.77-12.31.07-.26.16-.56.54-.5.31.05.44.28.51.56.56,2.15,1.12,4.29,1.69,6.43.19.71.41,1.43.66,2.12.18.5.67.58,1.14.66Z"/>
    <path class="cls-10" d="m148.17,224.77c.88,1.17,1.78,2.32,1.74,3.9-.61-.25-.9-.8-1.23-1.31-.29-.45-.6-.88-1.23-.81-.23-.45-.12-.9.04-1.33.23-.15.46-.29.68-.44Z"/>
    <path class="cls-10" d="m139.89,240.44c.53,2.02.56,4.06.25,6.12-.58-2.02-.34-4.07-.25-6.12Z"/>
    <path class="cls-10" d="m139.73,234.23c.24,1.11.27,2.22.09,3.34-.61-1.1-.64-2.21-.09-3.34Z"/>
    <path class="cls-2" d="m414.21,206.46c-.26-.16-.39-.39-.32-.7.26.16.37.39.32.7Z"/>
    <path class="cls-2" d="m415.57,208.07c-.29.49-.57.61-.8-.04.27.01.54.03.8.04Z"/>
    <path class="cls-2" d="m412.54,201.97c-.26-.15-.39-.37-.33-.68.26.16.37.38.33.68Z"/>
    <path class="cls-2" d="m411.43,199.16c-.27-.15-.4-.36-.34-.67.26.15.37.37.34.67Z"/>
    <path class="cls-2" d="m416.19,207.44l-.03.2s-.2.06-.2.05c.04-.12.11-.2.23-.26Z"/>
    <path class="cls-2" d="m410.29,196.41c-.27-.16-.39-.4-.36-.72.26.17.39.4.36.72Z"/>
    <path class="cls-1" d="m344.59,245.42c1.19-.06,2.13.85,2.11,2.03-.01,1.1-.8,1.91-1.9,1.95-1.24.05-2.13-.8-2.11-2.01.02-1.08.83-1.92,1.89-1.97Z"/>
    <path class="cls-6" d="m359.08,234.14c-2.68.02-5.37.04-8.05.07-.72,0-1.5-.18-2.07.49-.7-.2-1.4-.41-2.16-.63.44-.09-.23-.08.08-.29.07-.04.18-.02.27-.02,2.33-.02,4.65-.06,6.98-.06,1.58,0,3.17.05,4.75.08.06.13.12.25.2.36Z"/>
    <path class="cls-2" d="m359.08,234.14c-.08-.11-.15-.23-.2-.36,1.72-.08,3.46-.41,5.12.34-1.64,0-3.28.01-4.92.02Z"/>
    <path class="cls-6" d="m339.25,235.28c-.14-.2-.28-.39-.42-.59.7-.69,1.5-.51,2.44-.27-.64.58-1.35.67-2.01.86Z"/>
    <path class="cls-1" d="m221.01,245.42c1.14,0,2.13,1,2.07,2.1-.06,1.03-.95,1.86-2,1.88-1.25.02-2.07-.83-2.02-2.08.05-1.11.85-1.89,1.95-1.9Z"/>
    <path class="cls-2" d="m198.55,230.21c-1.69.17-3.37.19-5.06,0,1.69-.63,3.37-.65,5.06,0Z"/>
    <path class="cls-10" d="m205.83,230.84c-1.14.08-2.31.3-3.34-.44,1.14-.07,2.28-.13,3.34.44Z"/>
    <path class="cls-2" d="m217.04,234.28c.47-.41,1.01-.61,1.64-.53-.41.6-1.02.58-1.64.53Z"/>
    <path class="cls-10" d="m150.13,228.73l.05.18c-.06,0-.13,0-.16-.03-.05-.06-.07-.14-.11-.21.08.02.15.04.23.06Z"/>
  </g>
</svg>